<?xml version="1.0" encoding="UTF-8" standalone="no"?>
<svg id="svg2" xmlns:rdf="http://www.w3.org/1999/02/22-rdf-syntax-ns#" xmlns="http://www.w3.org/2000/svg" height="1172pt" width="763pt" version="1.1" xmlns:cc="http://creativecommons.org/ns#" xmlns:dc="http://purl.org/dc/elements/1.1/" viewBox="0 0 763 1172">
 <metadata id="metadata68">
  <rdf:RDF>
   <cc:Work rdf:about="">
    <dc:format>image/svg+xml</dc:format>
    <dc:type rdf:resource="http://purl.org/dc/dcmitype/StillImage"/>
    <dc:title/>
   </cc:Work>
  </rdf:RDF>
 </metadata>
 <g id="g4211">
  <path id="path4" d="m447.75 0c-23.31 5.1375-47 8.2871-70.29 13.537 13.03 1.563 26.08-2.174 39.04-0.199-8.91 3.425-18.45 4.762-27.62 7.25 6.13 0.3 12.3 0.412 18.46 0.324-8.65 6.55-20.4 5.437-29.72 9.1 8.87 1.225 19.48-0.787 27.35 2.201-9.8 2.925-19.91 4.499-29.87 6.637 7.61 4.45 21.61-0.95 29.94 3.275-12.45 4.575-25.7 6.201-38.76 7.488 12.91 2 26.02 2.237 39.01 3.637-8.5 3.825-17.88 4.6-26.86 6.662 8.8 2.413 18.05 1.313 27.07 1.801-9.1 3.512-18.51 6.074-28.06 8.012 9.5 2.287 19.17 3.35 28.85 1.488-8.72 6.425-22.23 5.212-32.7 8.537 8.69 2.288 17.73 2.288 26.6 3.5-9.87 2.338-21.59 3.8-29.91 6.775 6.02 4.3 18.38 0.774 26.42 1.362-7.69 5.937-19.2 3.888-28.01 7.763 7.73 2.11 16.11 1.49 24.06 2.82-10.17 2.44-20.71 3.33-30.64 6.72 8.6 3.09 18.65-0.54 26.63 2.07-12.86 5.33-26.88 6.48-40.05 10.78 3.67 6.35 18.14-1.61 24.92 0.42-7.02 6.25-19.68 5.08-25.75 10.76 8.52 0.15 16.84-3.23 25.35-2.15-12.48 5.22-27.23 5.27-38.43 13.28 13.07-3.54 26.76-3.46 40.12-5.24-16.2 8.73-37.05 13.38-53.44 23.9 6.29-1.31 12.53-2.87 18.7-4.62 29.33-8.42 58.18-18.28 87.62-26.23 52.57-21.71 117.38-37.035 177.34-42.072-31.96-5.488-64.38-8.326-96.56-12.363-15.4-27.95-31.35-57.675-57.52-77.225h-3.29zm37.21 137.59c-3.46 0.15-6.82 0.42-10.22 0.79 1.39 2.7 2.74 5.42 4.12 8.13 1.23 2.3 3.69 0.94 5.2-0.25 0.36-2.89 0.65-5.78 0.9-8.67zm-13.37 123.25c-7.2-0.1-14.55 0.94-20.78 4.77 1.81 10.45-3.62 20.54-2.38 30.8 15.6 23.09 16.5 53.15 11.62 79.71-41.26-23.73-106.7-31.22-113.33-89.3-13.75 6.57-29.29 9.53-41.19 19.59 28.61 12.53 51.12 37.59 65.81 64.68 16.72 15.24 38.66 24.87 61.26 26.62-9.19 3.4-21.19-0.1-31.48-0.33 10.89 7.02 26.26 7.89 39.06 11.07-11.05 5.15-23.28 4.05-35.03 2.81 11.53 9.43 31.9 4.36 46.24 5.84-10.34 4.69-21.49 6.82-32.7 7.94 11.2 5.51 26.86-0.58 38.75 1.85-10.48 4.02-21.13 7.65-32.23 9.56 12.7 4.37 30.71-1.3 44.67-3.94-6.28 7.56-20.06 8.34-27.18 15.29 12.81-1.25 25.09-5.19 37.25-9.23-10.05 10.19-25.74 11.82-37.51 19.23 17.27-1.3 33.38-8.01 48.82-15.39-9.12 9.38-22.04 13.83-32.35 21.53 18.59-4.28 35.16-14.02 51.25-23.88-2.04 3.38-4.05 6.78-6.13 10.13 41.47-16.45 29.2-67.95 19.71-101.4-11.29-32.2-24.21-66.36-52.15-87.95zm53.34 14.37c35.02 58.72 53.87 127.2 55.08 195.39 7.29-3.21-0.76 8.09 5.3 2.12 14.68-12.93-13.31 25.27 4.57 9.62 13.03-9.63-5.53 9.35-2.68 11.12 4.77-1.27 7.91-5.45 11.77-8.26-2.26 6.14-6.46 11.31-8.87 17.37 5.89-1.83 10.16-6.49 15.02-10.04-3.72 6.28-7.71 12.42-11.17 18.86 7.09-2.2 12.58-7.39 18.85-11.11-3.62 7.66-9.65 13.84-13.71 21.26 6.39-1.58 11.47-5.99 17.03-9.26-3.21 5.13-7.08 9.87-9.72 15.36 6.05-2.23 10.81-6.72 16.29-9.98-3.3 7.25-8.6 13.38-13.84 19.3 7.26 1.75 13.88-5.25 20.14-8.07-3.7 7.25-9.13 13.25-14.9 18.86 6.44-1.34 12.3-4.41 18.52-6.45-2.5 5.81-7.38 10.07-11.15 15.05 6.69-1.25 12.5-4.89 18.53-7.8-3.06 5.11-7.35 9.31-11.35 13.69 6.82 0.89 12.82-2.4 18.83-4.95-2.31 5.88-9.76 9.32-11.75 14.28 7.99-0.77 15.53-3.93 23.04-6.61-4.37 5.64-9.17 10.94-13.67 16.49 6.74-1.88 13.38-4.08 19.95-6.48-3.85 4.79-9.06 8.65-12.14 13.94 7.43-1.04 13.94-4.98 20.75-7.82-4 5.07-9.05 9.52-11.95 15.37 9.44-0.67 16.61-7.35 24.77-11.28-4.23 8.81-14.01 12.71-20.11 19.92 10.34-2.08 19.32-7.82 28.42-12.85-4.58 8.95-13.59 14.07-19.48 21.82 10.65-0.91 18.69-8.55 27.48-13.76-3.22 7.78-10.05 13.28-15.17 19.76 8.44-2.28 15.8-7.04 22.6-12.42-3.77 9.98-12.73 15.5-19.87 22.65 9.11-1.05 16.7-6.36 24.71-10.3-2.42 5.88-7.3 10.18-11.1 15.11 9.3-2.47 17.45-7.9 25.01-13.7-4.13 8.05-10.52 14.47-16.25 21.33 9.59-2.76 17.09-9.34 24.99-15.03-3.16 8.23-10.09 14.13-14.95 21.29 10.61-2.19 21.06-19.05 30.31-16.38 10.56-12.37 20.27-25.93 26.03-41.26-7.68-24.06-25.1-46.86-45.3-62.67-22.2-14.18-44.65-29.98-57.51-53.72-17.69-30.27-40.87-56.66-61.14-85.09-19.95-26.79-26.4-61.82-50.44-85.84-12.21-10.93-25.34-20.99-39.77-28.83zm-234.04 65.78c-1.34 0.02-2.66 0.05-3.99 0.06 3.4 9.06 8.6 17.34 11.91 26.44-7.15-7.51-12.82-16.61-22.4-21.43 6.31 8.63 12.59 17.43 16.14 27.63-6.77-5.74-12.66-12.45-19.73-17.84 6.05 7.74 11.17 16.19 14.73 25.37-7.02-5.45-12.19-13.16-20.02-17.51 5.53 8.38 12.53 16.23 14.98 26.24-6.32-3.45-9.53-10.76-16.27-13.69 3.09 7.46 7.84 14.09 11 21.52-7.59-5.22-12.81-13.38-21.13-17.64 4.34 8.43 10.49 15.86 13.99 24.77-8.8-6.1-16.29-13.81-24.79-20.26 6.65 8.96 13.28 18.03 18.23 28.09-8.74-5.85-16.65-12.92-26-17.8 7.63 8.34 16.78 16.07 20.08 27.35-9.33-6.09-17.15-15.28-28.48-17.64 7.57 7.45 15.75 14.7 20.68 24.32-5.4-2.9-10.44-6.43-15.98-9.07 2.89 5.99 7.51 10.92 10.94 16.61-9.05-3.27-15.91-11.46-25.64-12.85 5.23 7.61 17.19 11.4 20.39 21.77-10.48-4.07-19.93-15.56-32.06-11.73 10.2 4 20.07 9.51 26.29 18.89-11.44-3.36-22.48-8.88-34.61-9.18 7.53 4.84 18.53 6.3 25.25 13.62-8.2 0.65-16.32-1.13-24.46-1.91 6.45 4.53 14.26 7.05 20.06 12.48-10.78 1.69-27.21-7.95-35.06 1.2 9.94-3.25 19.76 0.93 27.63 6.91-8.31 1.05-16.86-1.39-25.18 0.35 7.48 2.39 14.97 5.02 21.56 9.43-7.18 0.67-14.36 1.53-21.35 3.33 1.87 4.95 10.67 3.34 15.06 6.59-9.15 2.1-22.61 1.48-28.59 8.18 8.89-1.95 17.22 1.2 25.86 2.75-6.69 3.8-16.54 2.41-23.83 6.42 0.7 6.03 14.34-0.46 13.35 5.78-9.63 1.66-22.45 0.96-28.35 10.35 9.95-5.14 21.74-7.3 31.96-1.05-13.21 4.72-30.76 2.77-39.4 16.01 9.83-4.23 20.84-8.41 31.56-5.19-11.01 5.43-24.01 8.38-31.68 18.84 8.23-3.86 16.9-8.05 26.34-5.68-13.39 6.54-27.78 17.02-29.54 32.93 5.99 16.45 23.75 25.3 39.72 27.71-7.6 1.52-15.72-0.45-23.06 2.2 9.41 5.55 20.84 7.23 31.55 5.28-3.96 4.81-13.49 4.11-19.52 6.65 11.82 3.97 25.93 1.37 38.33-1.88-9.4 11.65-29.86 11.09-40.71 15.19 16.23 4.59 35.72 0.21 50.86-8.61-12.37 12.46-29.71 18.82-47.13 19.06 16.81 3.29 36.41-3.19 52.11-11.67-7.56 12.5-24.14 16.01-34.63 22.78 16.44-1.87 28.85-13.7 43.34-20.17-2.81 7.67-9.51 13.05-13.94 19.76 9.2-6.49 16.44-15.85 26.62-20.91-8.68 16.28-21.77 29.04-34.99 41.26 18.37-7.22 25.56-29.6 43.61-37.64-9 15.19-18.34 30.39-29.8 43.93 16.59-11.71 24.19-34.4 43.8-43.74-6.78 11.12-16.12 20.92-20.31 33.46 9.32-8.54 16.51-19.61 27.62-26.07-6.11 14.42-14.57 27.77-22.26 41.4 13.93-15.18 23.12-37.05 44.52-43.81-0.25-3.77-0.53-7.53-0.87-11.29-0.66 0.22-2 0.66-2.66 0.89-16.78-22.39-35.51-43.56-57.39-61.12 10.14-8.99 17.84-26.34 28.73-31.37-0.07-19.4 19.31-35.58 29.16-51.74 12.93-10.45 14.52-30.46 29.64-38.01-1.15 2.97-8.42 11.31-1.42 7.45 10.33-5.28-11.02 13.1 1.15 7.61 1.25 3.57-9.8 7.65-10.91 12.58 3.76-0.98 7.32-2.58 10.97-3.88-5.37 5.53-12.15 9.45-17.53 14.95 5.15-1.25 10.03-3.36 15.07-4.95-4.89 6.04-13.05 8.79-17.32 15.27 6.52-0.6 12.37-3.63 18.62-5.29-5.51 6.31-13 10.47-19.11 16.16 6.94-1.61 13.64-4 20.37-6.28-7.82 9.93-20.59 13.89-31.52 19.37 11.61 3.12 22.1-4.75 32.76-8-7.37 8.46-19.18 12.2-27.2 19.16 11.53-1.45 21.59-7.45 32.14-11.79-6.76 8.56-17.15 12.91-25.15 20.05 3.81-1.16 7.61-2.36 11.39-3.63 13.2-10.28 22.31-24.31 31.6-37.93-21.94-55.34-41.92-111.69-65.7-166.15zm68.27 1121.3c-15.82 0-31.65 0.4-47.45 0.8 31.59 1.4 63.27 0.5 94.88 0.3-15.78-0.8-31.6-1.1-47.43-1.1z" transform="scale(.8)" fill="#4f4b1d"/>
  <path id="path6" d="m368.39 1.1328c-1.05-0.0683-2.3 0.2207-3.82 0.9922-117.51 57.763-233.91 117.96-351.41 175.88-4.6729 2.49-9.7225 4.7-13.16 8.9v1.15c4.0875-2.82 0.00039062 8.24 5.4004 9.38 18.613 5.06 37.188 10.48 55.975 14.93-9.063-10.76-27.25-11.91-39.187-20 21.274-22.41 52.137 5.61 74.775 3.18-12.4-7.99-28.151-12.88-41.951-19.32 10-6.92 23.351-17.96 36.039-9.81 10.189 4.04 23.509 3.56 29.089 14.79 39.05 52.86 90.85 99.74 155.04 118.5 3.3 6.51 5.36 13.61 8.51 20.23 2.67 6.91 6.4 13.57 7.2 21.06 23.78 54.46 43.76 110.81 65.7 166.15 17.89 44.03 34.82 88.47 52.09 132.77 4.65 9.44 6.47 20.46 12.94 28.85 13.09-0.22 23-9.59 14.6-21.16-22.98-55.51-43.72-111.99-66.12-167.75-4.68-24.55-5.46-50.84-20.19-72.25-24.72-28.89-32.9-66.89-47.35-101.21-2.08-6.44-6.81-12.65-6.52-19.48 18.55-36.47 24.45-78.82 20.43-119.36-0.93-3.14 3.11-3.63 4.99-5.04 16.39-10.52 37.24-15.17 53.44-23.9-13.36 1.78-27.05 1.7-40.12 5.24 11.2-8.01 25.95-8.06 38.43-13.28-8.51-1.08-16.83 2.3-25.35 2.15 6.07-5.68 18.73-4.51 25.75-10.76-6.78-2.03-21.25 5.93-24.92-0.42 13.17-4.3 27.19-5.45 40.05-10.78-7.98-2.61-18.03 1.02-26.63-2.07 9.93-3.39 20.47-4.28 30.64-6.72-7.95-1.33-16.33-0.71-24.06-2.82 8.81-3.875 20.32-1.826 28.01-7.763-8.04-0.588-20.4 2.938-26.42-1.362 8.32-2.975 20.04-4.437 29.91-6.775-8.87-1.212-17.91-1.212-26.6-3.5 10.47-3.325 23.98-2.112 32.7-8.537-9.68 1.862-19.35 0.799-28.85-1.488 9.55-1.938 18.96-4.5 28.06-8.012-9.02-0.488-18.27 0.612-27.07-1.801 8.98-2.062 18.36-2.837 26.86-6.662-12.99-1.4-26.1-1.637-39.01-3.637 13.06-1.287 26.31-2.913 38.76-7.488-8.33-4.225-22.33 1.175-29.94-3.275 9.96-2.138 20.07-3.712 29.87-6.637-7.87-2.988-18.48-0.976-27.35-2.201 9.32-3.663 21.07-2.55 29.72-9.1-6.16 0.088-12.33-0.024-18.46-0.324 9.17-2.488 18.71-3.825 27.62-7.25-12.96-1.975-26.01 1.762-39.04 0.199-3.74-1.266-3.43-12.035-9.07-12.404zm-6.54 18.217c3.6 2.45-6.35 15.288-8.11 21.8-5.44-3.15-13.38-4.575-17.28-8.613 6.78-5.55 17.1-8.95 25.39-13.187zm-43.78 22.375c10.99 0.112 22.54 3.113 33.15 5.837-5.33 18.313-9.06 37.063-11.43 55.998 0.77 17.04-18.92 24.62-29.63 32.4-3.09-24.38-9.47-48.222-15.28-72.085 11.58 1.35 25.88 10.525 36.26 8.125-5.2-10.675-26.04-11.412-33.26-20.475 6.7-3.3 13.36-6.763 20.19-9.8zm-38.71 18.75c12.09 1.087 11.54 20.775 15.4 30.812-13.22-4.475-25.67-11.825-38.41-17.662 5.57-6.3 15.39-9.125 23.01-13.15zm-38.7 20.062c18.83 2.475 37.02 9.789 55.37 14.826 3.83 15.327 7.18 30.857 8.92 46.587-15.14 13.39-31.8 25.3-46.26 39.3 16.7-4.61 33.3-9.74 50.21-13.54 3.41 37.13-1.81 77.69-17.49 110.8-22.45-58.09-46.07-115.73-68.62-173.76 11.55 2.03 24.32 9.16 34.4 8.3-12.64-7.91-27.58-12.13-39.85-20.575 7.05-4.85 15.43-8.288 23.32-11.938zm364.46 9.051c-59.96 5.037-124.77 20.362-177.34 42.072 26.03-5.85 52.13-11.42 78.23-16.94 33.74-6.82 67.38-14.15 100.5-23.495-0.35-0.413-1.05-1.225-1.39-1.637zm-408.51 13.422c3.94-0.25 3.83 6.63 6.03 9.37 22.07 58.43 45.95 116.33 67.4 174.94-58.88-16.65-106.14-61.02-142.32-108.68 1.59-2.99 10.82 5.92 12.47 0.06-15.24-4.5-27.81-15.69-32.45-30.91 21.22-12.29 45.88 14.18 67.14 11.97-11.22-9.12-31.57-14.42-43.47-23.29 9.04-4.7 18.05-9.98 27.39-13.91 17.35 4.85 34.29 13.95 51.79 17.09-9.1-8.65-27.24-14.53-38.25-24.59 8.09-4.01 16.07-8.27 24.27-12.05zm-97.198 49.48c3.008 0.19 3.558 7.26 5.548 8.81-4.71-1.41-16.397-5.45-6.997-8.44 0.541-0.29 1.02-0.4 1.449-0.37zm180.35 181.77c-0.46-0.02-0.96 0.04-1.5 0.2-25.62 20.09-47.36 44.74-67.02 70.55-29.66 49.06-64.54 99.42-66.19 158.98 2.3 16.47-5.85 34.72 3.75 49.8 20.58 46.88 59.24 85.21 106.32 105.16 1.76-8.83 0.31-18.84 6.43-26.21 7.69-13.63 16.15-26.98 22.26-41.4-11.11 6.46-18.3 17.53-27.62 26.07 4.19-12.54 13.53-22.34 20.31-33.46-19.61 9.34-27.21 32.03-43.8 43.74 11.46-13.54 20.8-28.74 29.8-43.93-18.05 8.04-25.24 30.42-43.61 37.64 13.22-12.22 26.31-24.98 34.99-41.26-10.18 5.06-17.42 14.42-26.62 20.91 4.43-6.71 11.13-12.09 13.94-19.76-14.49 6.47-26.9 18.3-43.34 20.17 10.49-6.77 27.07-10.28 34.63-22.78-15.7 8.48-35.3 14.96-52.11 11.67 17.42-0.24 34.76-6.6 47.13-19.06-15.14 8.82-34.63 13.2-50.86 8.61 10.85-4.1 31.31-3.54 40.71-15.19-12.4 3.25-26.51 5.85-38.33 1.88 6.03-2.54 15.56-1.84 19.52-6.65-10.71 1.95-22.14 0.27-31.55-5.28 7.34-2.65 15.46-0.68 23.06-2.2-15.97-2.41-33.73-11.26-39.72-27.71 1.76-15.91 16.15-26.39 29.54-32.93-9.44-2.37-18.11 1.82-26.34 5.68 7.67-10.46 20.67-13.41 31.68-18.84-10.72-3.22-21.73 0.96-31.56 5.19 8.64-13.24 26.19-11.29 39.4-16.01-10.22-6.25-22.01-4.09-31.96 1.05 5.9-9.39 18.72-8.69 28.35-10.35 0.99-6.24-12.65 0.25-13.35-5.78 7.29-4.01 17.14-2.62 23.83-6.42-8.64-1.55-16.97-4.7-25.86-2.75 5.98-6.7 19.44-6.08 28.59-8.18-4.39-3.25-13.19-1.64-15.06-6.59 6.99-1.8 14.17-2.66 21.35-3.33-6.59-4.41-14.08-7.04-21.56-9.43 8.32-1.74 16.87 0.7 25.18-0.35-7.87-5.98-17.69-10.16-27.63-6.91 7.85-9.15 24.28 0.49 35.06-1.2-5.8-5.43-13.61-7.95-20.06-12.48 8.14 0.78 16.26 2.56 24.46 1.91-6.72-7.32-17.72-8.78-25.25-13.62 12.13 0.3 23.17 5.82 34.61 9.18-6.22-9.38-16.09-14.89-26.29-18.89 12.13-3.83 21.58 7.66 32.06 11.73-3.2-10.37-15.16-14.16-20.39-21.77 9.73 1.39 16.59 9.58 25.64 12.85-3.43-5.69-8.05-10.62-10.94-16.61 5.54 2.64 10.58 6.17 15.98 9.07-4.93-9.62-13.11-16.87-20.68-24.32 11.33 2.36 19.15 11.55 28.48 17.64-3.3-11.28-12.45-19.01-20.08-27.35 9.35 4.88 17.26 11.95 26 17.8-4.95-10.06-11.58-19.13-18.23-28.09 8.5 6.45 15.99 14.16 24.79 20.26-3.5-8.91-9.65-16.34-13.99-24.77 8.32 4.26 13.54 12.42 21.13 17.64-3.16-7.43-7.91-14.06-11-21.52 6.74 2.93 9.95 10.24 16.27 13.69-2.45-10.01-9.45-17.86-14.98-26.24 7.83 4.35 13 12.06 20.02 17.51-3.56-9.18-8.68-17.63-14.73-25.37 7.07 5.39 12.96 12.1 19.73 17.84-3.55-10.2-9.83-19-16.14-27.63 9.58 4.82 15.25 13.92 22.4 21.43-3.31-9.1-8.51-17.38-11.91-26.44-2.3-2.09-3.89-6.59-7.14-6.79zm91.58 36.83c16.95 31.39 31.4 64.63 52.97 93.16 23.44 21.31 60.12 6 79.72-14.06 2.08-3.35 4.09-6.75 6.13-10.13-16.09 9.86-32.66 19.6-51.25 23.88 10.31-7.7 23.23-12.15 32.35-21.53-15.44 7.38-31.55 14.09-48.82 15.39 11.77-7.41 27.46-9.04 37.51-19.23-12.16 4.04-24.44 7.98-37.25 9.23 7.12-6.95 20.9-7.73 27.18-15.29-13.96 2.64-31.97 8.31-44.67 3.94 11.1-1.91 21.75-5.54 32.23-9.56-11.89-2.43-27.55 3.66-38.75-1.85 11.21-1.12 22.36-3.25 32.7-7.94-14.34-1.48-34.71 3.59-46.24-5.84 11.75 1.24 23.98 2.34 35.03-2.81-12.8-3.18-28.17-4.05-39.06-11.07 10.29 0.23 22.29 3.73 31.48 0.33-22.6-1.75-44.54-11.38-61.26-26.62zm-38.66 85.2c-15.12 7.55-16.71 27.56-29.64 38.01-9.85 16.16-29.23 32.34-29.16 51.74 2.82 7.66 6.28 15.22 11.43 21.62 14.71-4.17 27.42-13.76 39.68-22.59-3.78 1.27-7.58 2.47-11.39 3.63 8-7.14 18.39-11.49 25.15-20.05-10.55 4.34-20.61 10.34-32.14 11.79 8.02-6.96 19.83-10.7 27.2-19.16-10.66 3.25-21.15 11.12-32.76 8 10.93-5.48 23.7-9.44 31.52-19.37-6.73 2.28-13.43 4.67-20.37 6.28 6.11-5.69 13.6-9.85 19.11-16.16-6.25 1.66-12.1 4.69-18.62 5.29 4.27-6.48 12.43-9.23 17.32-15.27-5.04 1.59-9.92 3.7-15.07 4.95 5.38-5.5 12.16-9.42 17.53-14.95-3.65 1.3-7.21 2.9-10.97 3.88 1.11-4.93 12.16-9.01 10.91-12.58-12.17 5.49 9.18-12.89-1.15-7.61-7 3.86 0.27-4.48 1.42-7.45zm256.72 13.72c-0.54-0.08-1.79 0.69-4.09 2.71-6.06 5.97 1.99-5.33-5.3-2.12-12.91 27.01-3.87 62.37-19.91 89.5-13.5 31.4-55.41 30.6-72.44 58.83-5.31 11.01-8.61 25.61-1.13 36.5 7.48 0.15 10.41-7.59 11.4-13.83-6.03 4.94-16.38 3.58-9.27-5.24 13.4-31.73 55.98-26.87 71.46-56.02 8.96-14.95 10.67-32.7 14.69-49.3 13.41 18.38 36.07 26.62 48.43 45.74 26.21 31.6 55.01 61.63 88.14 86.02 17.58-3.14 29.47-18.52 41.68-30.18-9.25-2.67-19.7 14.19-30.31 16.38 4.86-7.16 11.79-13.06 14.95-21.29-7.9 5.69-15.4 12.27-24.99 15.03 5.73-6.86 12.12-13.28 16.25-21.33-7.56 5.8-15.71 11.23-25.01 13.7 3.8-4.93 8.68-9.23 11.1-15.11-8.01 3.94-15.6 9.25-24.71 10.3 7.14-7.15 16.1-12.67 19.87-22.65-6.8 5.38-14.16 10.14-22.6 12.42 5.12-6.48 11.95-11.98 15.17-19.76-8.79 5.21-16.83 12.85-27.48 13.76 5.89-7.75 14.9-12.87 19.48-21.82-9.1 5.03-18.08 10.77-28.42 12.85 6.1-7.21 15.88-11.11 20.11-19.92-8.16 3.93-15.33 10.61-24.77 11.28 2.9-5.85 7.95-10.3 11.95-15.37-6.81 2.84-13.32 6.78-20.75 7.82 3.08-5.29 8.29-9.15 12.14-13.94-6.57 2.4-13.21 4.6-19.95 6.48 4.5-5.55 9.3-10.85 13.67-16.49-7.51 2.68-15.05 5.84-23.04 6.61 1.99-4.96 9.44-8.4 11.75-14.28-6.01 2.55-12.01 5.84-18.83 4.95 4-4.38 8.29-8.58 11.35-13.69-6.03 2.91-11.84 6.55-18.53 7.8 3.77-4.98 8.65-9.24 11.15-15.05-6.22 2.04-12.08 5.11-18.52 6.45 5.77-5.61 11.2-11.61 14.9-18.86-6.26 2.82-12.88 9.82-20.14 8.07 5.24-5.92 10.54-12.05 13.84-19.3-5.48 3.26-10.24 7.75-16.29 9.98 2.64-5.49 6.51-10.23 9.72-15.36-5.56 3.27-10.64 7.68-17.03 9.26 4.06-7.42 10.09-13.6 13.71-21.26-6.27 3.72-11.76 8.91-18.85 11.11 3.46-6.44 7.45-12.58 11.17-18.86-4.86 3.55-9.13 8.21-15.02 10.04 2.41-6.06 6.61-11.23 8.87-17.37-3.86 2.81-7 6.99-11.77 8.26-2.85-1.77 15.71-20.75 2.68-11.12-15.09 13.2 2.48-11.93-0.48-12.33zm-255.31 87.74c-17.19 8.49-35.76 15.81-55.38 13.07 7.15 19.1 18.95 38.49 31.18 55.68 14.37 9.42 34.53-6.6 45.12-16.54-7.95 3.18-15.87 6.89-24.7 6.64 5.73-8.19 18.1-10.15 23.55-19.22-7.86 2.32-15.43 5.7-23.62 6.77 4.4-7.3 13.81-9.59 18.57-16.69-11.07 4.12-21.83 9.64-33.63 11.34 9.76-7.16 21.61-12.05 28.39-22.61-10.45 3.03-20.26 8.06-30.97 10.22 5.89-7.61 17.1-9.4 22.2-17.77-6.91 1.13-13.1 4.61-19.83 6.42 5.49-6.74 14.84-9.54 19.12-17.31zm224.19 32.93c8.86 50.56-12.6 103.94-48 139.58 21.41-8.76 35.21-30.21 47.36-49.1 8.23-27.2 10.74-57.06 5.11-84.94-1.13-2.11-2.12-4.56-4.47-5.54zm-211.84 40.43c-12.36 2.43-24.99 3.04-37.56 2.57-2.39 0.21-3.82 1.48-3.68 3.96 0.34 3.76 0.62 7.52 0.87 11.29 9.42 3.8 17.01 10.94 26.46 14.52 5.96-2.7 13.71-4.28 17.36-9.88-6.78-0.35-15.03 3.44-21.14 0.72 5.75-3.55 12.8-5.51 17.45-10.6-8.28 1.21-19.94 7.5-25.85 0.26 9.1-2.69 20.15-4.6 26.09-12.84zm-53.98 103.98c-0.58 0.34-1.76 1.04-2.35 1.37-45.12 121.38-31.92 255.88-4.02 379.84 10 10.3 27.18 13.4 41.13 11 15.64-4.6 32.59-1.3 47.84-7.9-18.92-2-41.24 2.1-60.27-6.3 18.46-1.3 41.92 0.5 57.7-9.5-19.24 2.7-38.88 1-57.59-4 14.53-1.1 29.42-3 42.82-9-18.58-0.1-41.61 2.2-57.48-6.9 20.65-3.5 43.81-0.5 62.57-11.3-23.51 4.5-48.09 3.5-71.62-0.1 17.39-4.3 38.07-5.9 56.38-11.6-18.47-1.5-38.28 2-56.51-4.7 17.84-4.5 36.95-1.4 54.16-9.1-15.11-0.9-30.58 0-45.22-4.9 16.2-1.8 32.87-2.8 47.79-10.1-20.18-0.3-40.59-1-60.35-6 18.24-0.9 38.98-0.5 56.7-9-18.08-1.4-36.43 0.3-54.39-3.2 16.4-4.4 37.65-3 54.35-11.8-17.46-1.6-38.9 0.4-54.15-7.05 12.2-1.66 31.03 3.8 44.08-5.46-18.42 0.76-36.09-4.25-54.08-7.2 16.81-4.28 42.51 5.07 57.59-8.63-19.68 3.13-39.44-0.02-58.95-2.62 19.12-2.55 40.13-0.81 57.82-10.29-19.89 0.41-41.91-0.98-60.09-5.7 16.4-0.3 39.13-1.66 57.03-7.85-17.59 0.61-35.35-0.24-52.45-5.29 17.64 0.19 35.66-0.67 51.7-8.69-18.21-1.03-37.96 0.76-55.65-6.63 19.4 0.72 43.04 1.42 59.29-9.05-18.79 4.15-38.05 1.83-56.52-2.8 18.32-1.07 38.57 0.42 55.54-9.02-17.76 0.38-35.06-3.56-52.57-5.77 15.2-3.43 35.01-1.7 51.2-7.82-16-0.78-31.75-3.7-47.57-5.98 14.89-3.45 32.82-0.66 47.69-7.7-15.97-0.78-31.66-4.36-47.67-4.57 12.91-4.97 32.58-1.87 46.51-10.72-15.71-1.06-31.61 0.19-47.14-3.2 14.39-5.21 33.73 0.22 48.32-9.11-12.99-1.8-30.04 0.19-41.33-4.47 11.12-5.22 28.26-3.28 41.16-7.77-14.01-3.79-29.4-2.8-43.91-5.02 14.2-2.8 31.06-3.28 43-11.04-15.56 1.26-31.59 2.86-46.86-1.36 15.27-4.38 34.02-4.64 49.5-11.85-15.59-1.1-31.3 0.51-46.79-1.85 14.06-3.5 31.94-3.24 46.74-9.15-11.89-1.63-23.93-1.63-35.79-3.44 11.31-2.65 23.64-2.81 34.22-7.69-12.22-2.13-25.63-1.06-37.91-4.96 12.73-2.2 25.74-2.35 38.4-5.06-2.28-6.03-18.48-0.85-23-5.62 5.39-4.31 15.59-3.91 22.32-6.88-8.33-1.6-16.91-1.45-25.18-3.37 7.06-5.46 18.86-3.21 27.69-6.57-9.03-0.81-18.39-1.01-26.67-5.15 7.03-1.84 15.21 1.05 21.84-1.68-13.32-3.2-26.8-6.29-39-12.73zm177.58 4.56c-1.28 0.96-2.53 1.92-3.79 2.89-3.77 4.02-9.46 3.83-14.46 5.06 18.42 50.41 39 100.14 57.96 150.35-2.31 12.96-40.27-9.64-36.1 10.74 21.74 24.91 45.97 47.84 68.32 71.9 15.18 38.11 29.9 76.41 44.85 114.61-9.37 27.3-22.02 53.7-34.22 79.9-25.74 56.7-36.44 118.6-48.14 179.3-5.4 28.6-10.72 58.1-4.3 87-14.97-9.5-32.27-13.9-48.98-19.2-14.87 1.1-28.27 8.3-42.17 13.1-37.26 15.7-78.03 21.8-118.23 21.8 19.33-17.2 43.92-27.1 62.94-44.6-18.62 7.5-37.74 13.6-56.32 21.2 14.39-14.8 35.53-20.7 49.96-35.2-15.51 4-30 11.1-45.08 16.4 12.85-11.9 29.43-18.9 42.57-30.2-16.61 4.3-32.33 11.4-48.65 16.5 13.95-12.6 32.14-19.3 47.48-30-14.37 3.4-28.48 7.9-42.87 11.2 11.84-10 28.09-16.4 40.01-23.7-18.53 2.6-36.34 8.8-53.52 16.2 13.08-14.6 32.76-19.5 47.88-31.1-17.15 4.2-33.85 9.9-50.32 16.1 12.52-15.1 32.76-20.9 47.55-32.5-15.61 2.3-30.12 8.6-44.91 13.8 10.56-13.7 29.25-17.3 41.22-28.8-11.5 1.4-22.65 4.7-33.83 7.5 6.86-10.9 21.35-12.2 30.05-20.3-12.28 0.6-23.51 5.4-35.04 9.1 8.8-9.1 21.64-13.2 30.26-22.4-11.64 2.2-22.75 6.2-33.92 9.9 8.24-11.3 23.21-14 32.62-23.8-11.61 4.3-22.92 9.6-34.96 12.7 8.99-11.2 23.32-15.9 34.11-24.8-9.47 2.1-18.67 5.2-28.15 7.3 7.7-10.2 20.23-14.4 29.96-22.1-10.37-1.6-19.94 3.7-29.77 6 8.38-8.9 21.3-12.6 29.77-21.6-10.37 1.4-19.73 6.4-29.86 8.8 8.25-10.1 22.24-12.4 31.45-21.1-12.35 2.4-24.32 6.3-36.38 9.8 10.07-11 24.53-16 36.65-24.3-13.22-0.5-25.39 6.9-37.72 10.8 11.05-13.3 30.97-16.5 43.28-28-15.59 2.4-30.49 7.6-44.77 14.2 12.48-13.3 32.06-17.2 46.39-27.9-13.72 1.7-27.11 5.2-40.35 9 12.15-10.3 28.13-14.4 41.64-22.5-10.02 1.2-19.79 4.1-29.83 5.1 9.25-7.3 23.5-10 34.82-15.6-11.54-2.4-25.68 4.4-36.3 2.2 13.9-8.1 29.81-11.2 44.95-16.1-22.04-1.2-44.03 5.5-64.18 14-14.91 65-12.27 133.8-16.67 200.5 1.11 37.6 2.62 75.7 9.82 112.6 11.85 2.1 26.09 1.5 38.95 1.7 31.6-0.8 63.32-1.4 94.88 0.3 89.27 1.6 178.86-1.6 267.96 1.6h5.89c0.96-4.4 5.36-1.6 8.15 0h1.13c6.43-1.4 13.04-1 19.5 0h8.38c1.46-4.2 5.74-1.4 8.71 0h13.23c3.28-2.8 7.2-1 11 0h6.07c-20.66-53.9-42.31-107.4-63.14-161.2-24.75-62.4-49.03-125-73.66-187.4-2.15-5.9-6.92-12.8-2.09-18.7-3.72 4.1-7.13-0.4-6.11-4.6 6.94-8.5 16.55-14.9 22-24.6-9.15 5.1-17.1 12.9-27.18 15.9 8.17-14.8 26.12-24.7 39.78-35.6-14.71 3.4-28.53 10.3-40.78 19-1.19 1-2.41 2-4.02 1.9-6.57-17.8-14.29-35.3-20.35-53.3 13.3 8 21.03 24.6 36.89 28.8 19.96-0.4 42.84-2.1 59.56-12.9-15.86 1.6-32.22 3-47.76-1.4 17.11-1.8 34.37-4.6 50.32-11.3-13.72-1.9-32.14 5.3-44.89 0.5 7.26-4.7 19.77-6 27.91-12-20.64 0.3-44.19 6.5-62.93 0.7 13.38-3.6 31.44-3.8 44.96-11.91-18.37-0.99-36.77 1.82-55.18 0.83 10.82-6.15 27.85-4.9 40.42-10.58-13.55-2.47-27.84-0.13-41.67-0.71 12-5.68 29.72-6.83 39.75-15.21-15.98 1.99-32.08 3.38-48.2 2.64 12.04-5.28 28.9-7.06 41.22-15.17-17.85 1.81-36.15 5.64-54.01 2.49 10.19-3.68 20.93-6.1 30.55-11.19-13.56 0.16-27.2 3.78-40.72 1.27 10.2-5.35 23.77-5.86 32.67-12.69-13.38 0.74-27.08 4.64-40.35 1.67 7.3-4.64 16.64-5.42 23.61-10.79-5.76-3.69-25.57 10.14-28.18-3.24 7.1-3.37 15.34-4.72 21.32-10.11-8.4-1.21-23.85 10.2-26.25-2.38 5.8-3.06 13.3-3.45 17.72-8.65-6.57 0.75-13.13 3.13-19.78 2.28-6.28-5.14 7.91-9.32-3.98-10.36-18.6-45.74-36.2-91.97-54.41-137.89-3.01-6.54-3.69-14.7-9.61-19.45zm127.72 384.25c7.06 11.1-12.92 19.5-20.3 24.7 4.89-9.4 13.25-16.8 20.3-24.7zm4.42 10.2c25.57 66.9 53.12 133.4 77.83 200.6 14.91 35.8 29.48 72.3 42.52 108.9-12.19-3.3-23.83-8.6-36.32-11-50.91 6.2-101.47 15.1-152.25 22.4 9.1-23.7 29.83-40.5 43.43-61.3-20 13.6-36.09 32.3-52.48 49.9 15.66-26.3 39.69-46.5 57.4-71.3-22.06 12.6-39.8 31.2-57.12 49.1 13.11-27 37.99-45.6 55.9-69.1-18.86 11.5-36.39 25-52.47 40.1 14.29-25 39.98-40.2 57.45-62.6-16.97 10-32.42 22.9-48.5 33.9 11.53-17.6 28.64-31.6 44.09-45.9 0.68-1.6 1.25-3.6-1.07-2.2-16.14 8.6-29.42 21.6-44.55 31.7 11.45-18.5 28.52-32.3 43.72-47.6 1.29-0.4 4.45-6.2 0.84-4.1-18.09 9.9-33.53 23.9-49.46 36.8 9.7-24.7 34.31-38.1 49.92-57.5-17.15 9-33.17 20.5-47.49 33.7 12.72-19.5 33.27-32 47.4-50.2-16.7 12.1-33.47 24-49.94 36.4 13.45-22.6 35.68-38.3 52.93-57.1-18.38 11.1-35.36 24.5-51.62 38.4 11.99-20.6 30.84-36.2 45.34-54.7-13.7 9-25.01 21-37.83 31 11.19-21.2 31.14-35.8 46.29-53.8-8.7 4.2-15.68 11.1-23.8 16.2 5.76-10.5 14.99-19 19.96-30-9.56 5.5-16.01 15-24.92 21.4 8.44-18.4 24-32.4 35.06-48.6-11.22 5.4-18.79 16.7-30.3 22.1 14.2-13.9 25.36-33.8 40.04-45.6zm57.78 248.3c-30.8 12.5-61.61 27.6-86.14 50.2 28.37-14.1 55.74-31.2 87.17-37.8-2.46-3.4 2.97-11.8-1.03-12.4zm-214.6 5c-27.35 8.6-57.88 19.2-81.71 36.5 28.56-6.5 53.19-24.8 82.51-28-0.2-2.8-0.32-5.7-0.8-8.5z" transform="scale(.8)" fill="#010201"/>
  <path id="path10" d="m506.01 114.72c-26.1 5.52-52.2 11.09-78.23 16.94-29.44 7.95-58.29 17.81-87.62 26.23 1 43.03 5.28 85.92 6.56 128.93 6.63 58.08 72.07 65.57 113.33 89.3 4.88-26.56 3.98-56.62-11.62-79.71-1.24-10.26 4.19-20.35 2.38-30.8-9.01-29.03 21.8-14.2 35.88-25.43 15.46-8.57 4.41-32.57 19.87-40.9 3.34-3.89 0.66-9.64 1.66-14.32 5.54-0.52 15.75 0.15 14.1-8.3-4.53-20.79-10.25-41.5-16.31-61.94zm-18.54 21.52c3.9 0.25 4.27 13.13-3.41 10.02-1.51 1.19-3.97 2.55-5.2 0.25-17.21 5.76-22.66-5.06-4.12-8.13 3.4-0.37 6.76-0.64 10.22-0.79 0.94-1 1.79-1.39 2.51-1.35zm291.62 455.12c-5.76 15.33-15.47 28.89-26.03 41.26-12.21 11.66-24.1 27.04-41.68 30.18 29.03 20.56 61.04 36.87 94.66 48.52 11.58 8.18 22.5 17.56 31.95 28.21 13.31 10.36 30.72 12.58 44.71 21.83 8.37 3.57 14.64-3.15 18.87-9.22 12.54 2.73 20.44-4.84 22.05-16.1 14.4 0.01 22.27-13.87 16.93-26.97 5.23-2.05 11.07-3.98 13.2-9.81v-8.72c-3.43-22.27-27.97-28.1-39.79-44.55-26-15.88-57.37 18.76-84.86 1.51-19.7-15.69-39.49-32.59-50.01-56.14zm-370.41 48.55c-8.85 22.94-39.33 17.69-50.28 38.71-8.75-4.84-16.9-10.72-25.87-15.17-9.45-3.58-17.04-10.72-26.46-14.52-21.4 6.76-30.59 28.63-44.52 43.81-6.12 7.37-4.67 17.38-6.43 26.21 11.67 5.36 25.68 8.74 34.99 17.51 0.59-0.33 1.77-1.03 2.35-1.37 4.54-1.79 9.09 2.82 13.57 3.84 51.8 18.52 106.99 4.42 160.22 3.61 1.26-0.97 2.51-1.93 3.79-2.89 10.28-6.62 10.45-20.45 15.05-30.58-9.48-10.86 4.34-30.49-14.54-34.82 8.66-22.24-17.23-32.41-34.33-26.65 8.4 11.57-1.51 20.94-14.6 21.16-6.47-8.39-8.29-19.41-12.94-28.85z" transform="scale(.8)" fill="#b57250"/>
  <path id="path12" d="m487.47 136.24c-0.72-0.04-1.57 0.35-2.51 1.35-0.25 2.89-0.54 5.78-0.9 8.67 7.68 3.11 7.31-9.77 3.41-10.02zm-12.73 2.14c-18.54 3.07-13.09 13.89 4.12 8.13-1.38-2.71-2.73-5.43-4.12-8.13z" transform="scale(.8)" fill="#c8bf9e"/>
  <path id="path18" d="m485.56 260.22c-4.86-0.05-9.61 0.22-13.97 0.62 27.94 21.59 40.86 55.75 52.15 87.95 9.49 33.45 21.76 84.95-19.71 101.4-19.6 20.06-56.28 35.37-79.72 14.06-21.57-28.53-36.02-61.77-52.97-93.16-14.69-27.09-37.2-52.15-65.81-64.68-0.74-0.01-2.23-0.01-2.97-0.02 14.45 34.32 22.63 72.32 47.35 101.21 14.73 21.41 15.51 47.7 20.19 72.25 22.4 55.76 43.14 112.24 66.12 167.75 17.1-5.76 42.99 4.41 34.33 26.65 18.88 4.33 5.06 23.96 14.54 34.82-4.6 10.13-4.77 23.96-15.05 30.58 5.92 4.75 6.6 12.91 9.61 19.45 18.21 45.92 35.81 92.15 54.41 137.89 11.89 1.04-2.3 5.22 3.98 10.36 6.65 0.85 13.21-1.53 19.78-2.28-4.42 5.2-11.92 5.59-17.72 8.65 2.4 12.58 17.85 1.17 26.25 2.38-5.98 5.39-14.22 6.74-21.32 10.11 2.61 13.38 22.42-0.45 28.18 3.24-6.97 5.37-16.31 6.15-23.61 10.79 13.27 2.97 26.97-0.93 40.35-1.67-8.9 6.83-22.47 7.34-32.67 12.69 13.52 2.51 27.16-1.11 40.72-1.27-9.62 5.09-20.36 7.51-30.55 11.19 17.86 3.15 36.16-0.68 54.01-2.49-12.32 8.11-29.18 9.89-41.22 15.17 16.12 0.74 32.22-0.65 48.2-2.64-10.03 8.38-27.75 9.53-39.75 15.21 13.83 0.58 28.12-1.76 41.67 0.71-12.57 5.68-29.6 4.43-40.42 10.58 18.41 0.99 36.81-1.82 55.18-0.83-13.52 8.11-31.58 8.31-44.96 11.91 18.74 5.8 42.29-0.4 62.93-0.7-8.14 6-20.65 7.3-27.91 12 12.75 4.8 31.17-2.4 44.89-0.5-15.95 6.7-33.21 9.5-50.32 11.3 15.54 4.4 31.9 3 47.76 1.4-16.72 10.8-39.6 12.5-59.56 12.9-3.79 7.8-9.72 14.4-12.52 22.6 12.25-8.7 26.07-15.6 40.78-19-13.66 10.9-31.61 20.8-39.78 35.6 10.08-3 18.03-10.8 27.18-15.9-5.45 9.7-15.06 16.1-22 24.6-1.02 4.2 2.39 8.7 6.11 4.6-4.83 5.9-0.06 12.8 2.09 18.7 24.63 62.4 48.91 125 73.66 187.4 29.48-84.6 67-168 77.32-258 3.61-15.8 1.02-32.1-4.68-46.96-15.22-48.86-38.51-95-68.47-136.48-44.74-61.76-85.52-127.31-140-181.2-12.15 18.89-25.95 40.34-47.36 49.1 35.4-35.64 56.86-89.02 48-139.58 2.35 0.98 3.34 3.43 4.47 5.54-1.27-5.22-2.14-10.54-2.63-15.88-15.48 29.15-58.06 24.29-71.46 56.02-7.11 8.82 3.24 10.18 9.27 5.24-0.99 6.24-3.92 13.98-11.4 13.83-7.48-10.89-4.18-25.49 1.13-36.5 17.03-28.23 58.94-27.43 72.44-58.83 16.04-27.13 7-62.49 19.91-89.5-1.21-68.19-20.06-136.67-55.08-195.39-9.17-11.67-24.78-14.81-39.37-14.99zm-201.87 59.71c-3.84 3.91-7.28 8.8-5.43 14.53 4.31-1.33 6.02 4.2 8.64 6.59 1.33-0.01 2.65-0.04 3.99-0.06-0.8-7.49-4.53-14.15-7.2-21.06zm72.9 187.21c-9.29 13.62-18.4 27.65-31.6 37.93-12.26 8.83-24.97 18.42-39.68 22.59-2.29 0.79-5.42 0.65-6.6 3.16 19.62 2.74 38.19-4.58 55.38-13.07-4.28 7.77-13.63 10.57-19.12 17.31 6.73-1.81 12.92-5.29 19.83-6.42-5.1 8.37-16.31 10.16-22.2 17.77 10.71-2.16 20.52-7.19 30.97-10.22-6.78 10.56-18.63 15.45-28.39 22.61 11.8-1.7 22.56-7.22 33.63-11.34-4.76 7.1-14.17 9.39-18.57 16.69 8.19-1.07 15.76-4.45 23.62-6.77-5.45 9.07-17.82 11.03-23.55 19.22 8.83 0.25 16.75-3.46 24.7-6.64-10.59 9.94-30.75 25.96-45.12 16.54-0.28 2.4-0.64 4.79-1.01 7.18 12.57 0.47 25.2-0.14 37.56-2.57-5.94 8.24-16.99 10.15-26.09 12.84 5.91 7.24 17.57 0.95 25.85-0.26-4.65 5.09-11.7 7.05-17.45 10.6 6.11 2.72 14.36-1.07 21.14-0.72-3.65 5.6-11.4 7.18-17.36 9.88 8.97 4.45 17.12 10.33 25.87 15.17 10.95-21.02 41.43-15.77 50.28-38.71-17.27-44.3-34.2-88.74-52.09-132.77zm-61.57 227.55c-0.86-0.05-1.71 0.06-2.56 0.4 12.2 6.44 25.68 9.53 39 12.73-6.63 2.73-14.81-0.16-21.84 1.68 8.28 4.14 17.64 4.34 26.67 5.15-8.83 3.36-20.63 1.11-27.69 6.57 8.27 1.92 16.85 1.77 25.18 3.37-6.73 2.97-16.93 2.57-22.32 6.88 4.52 4.77 20.72-0.41 23 5.62-12.66 2.71-25.67 2.86-38.4 5.06 12.28 3.9 25.69 2.83 37.91 4.96-10.58 4.88-22.91 5.04-34.22 7.69 11.86 1.81 23.9 1.81 35.79 3.44-14.8 5.91-32.68 5.65-46.74 9.15 15.49 2.36 31.2 0.75 46.79 1.85-15.48 7.21-34.23 7.47-49.5 11.85 15.27 4.22 31.3 2.62 46.86 1.36-11.94 7.76-28.8 8.24-43 11.04 14.51 2.22 29.9 1.23 43.91 5.02-12.9 4.49-30.04 2.55-41.16 7.77 11.29 4.66 28.34 2.67 41.33 4.47-14.59 9.33-33.93 3.9-48.32 9.11 15.53 3.39 31.43 2.14 47.14 3.2-13.93 8.85-33.6 5.75-46.51 10.72 16.01 0.21 31.7 3.79 47.67 4.57-14.87 7.04-32.8 4.25-47.69 7.7 15.82 2.28 31.57 5.2 47.57 5.98-16.19 6.12-36 4.39-51.2 7.82 17.51 2.21 34.81 6.15 52.57 5.77-16.97 9.44-37.22 7.95-55.54 9.02 18.47 4.63 37.73 6.95 56.52 2.8-16.25 10.47-39.89 9.77-59.29 9.05 17.69 7.39 37.44 5.6 55.65 6.63-16.04 8.02-34.06 8.88-51.7 8.69 17.1 5.05 34.86 5.9 52.45 5.29-17.9 6.19-40.63 7.55-57.03 7.85 18.18 4.72 40.2 6.11 60.09 5.7-17.69 9.48-38.7 7.74-57.82 10.29 19.51 2.6 39.27 5.75 58.95 2.62-15.08 13.7-40.78 4.35-57.59 8.63 17.99 2.95 35.66 7.96 54.08 7.2-13.05 9.26-31.88 3.8-44.08 5.46 15.25 7.45 36.69 5.45 54.15 7.05-16.7 8.8-37.95 7.4-54.35 11.8 17.96 3.5 36.31 1.8 54.39 3.2-17.72 8.5-38.46 8.1-56.7 9 19.76 5 40.17 5.7 60.35 6-14.92 7.3-31.59 8.3-47.79 10.1 14.64 4.9 30.11 4 45.22 4.9-17.21 7.7-36.32 4.6-54.16 9.1 18.23 6.7 38.04 3.2 56.51 4.7-18.31 5.7-38.99 7.3-56.38 11.6 23.53 3.6 48.11 4.6 71.62 0.1-18.76 10.8-41.92 7.8-62.57 11.3 15.87 9.1 38.9 6.8 57.48 6.9-13.4 6-28.29 7.9-42.82 9 18.71 5 38.35 6.7 57.59 4-15.78 10-39.24 8.2-57.7 9.5 19.03 8.4 41.35 4.3 60.27 6.3-15.25 6.6-32.2 3.3-47.84 7.9-13.95 2.4-31.13-0.7-41.13-11-0.59 10.9-3.85 21.4-6.48 32 20.15-8.5 42.14-15.2 64.18-14-15.14 4.9-31.05 8-44.95 16.1 10.62 2.2 24.76-4.6 36.3-2.2-11.32 5.6-25.57 8.3-34.82 15.6 10.04-1 19.81-3.9 29.83-5.1-13.51 8.1-29.49 12.2-41.64 22.5 13.24-3.8 26.63-7.3 40.35-9-14.33 10.7-33.91 14.6-46.39 27.9 14.28-6.6 29.18-11.8 44.77-14.2-12.31 11.5-32.23 14.7-43.28 28 12.33-3.9 24.5-11.3 37.72-10.8-12.12 8.3-26.58 13.3-36.65 24.3 12.06-3.5 24.03-7.4 36.38-9.8-9.21 8.7-23.2 11-31.45 21.1 10.13-2.4 19.49-7.4 29.86-8.8-8.47 9-21.39 12.7-29.77 21.6 9.83-2.3 19.4-7.6 29.77-6-9.73 7.7-22.26 11.9-29.96 22.1 9.48-2.1 18.68-5.2 28.15-7.3-10.79 8.9-25.12 13.6-34.11 24.8 12.04-3.1 23.35-8.4 34.96-12.7-9.41 9.8-24.38 12.5-32.62 23.8 11.17-3.7 22.28-7.7 33.92-9.9-8.62 9.2-21.46 13.3-30.26 22.4 11.53-3.7 22.76-8.5 35.04-9.1-8.7 8.1-23.19 9.4-30.05 20.3 11.18-2.8 22.33-6.1 33.83-7.5-11.97 11.5-30.66 15.1-41.22 28.8 14.79-5.2 29.3-11.5 44.91-13.8-14.79 11.6-35.03 17.4-47.55 32.5 16.47-6.2 33.17-11.9 50.32-16.1-15.12 11.6-34.8 16.5-47.88 31.1 17.18-7.4 34.99-13.6 53.52-16.2-11.92 7.3-28.17 13.7-40.01 23.7 14.39-3.3 28.5-7.8 42.87-11.2-15.34 10.7-33.53 17.4-47.48 30 16.32-5.1 32.04-12.2 48.65-16.5-13.14 11.3-29.72 18.3-42.57 30.2 15.08-5.3 29.57-12.4 45.08-16.4-14.43 14.5-35.57 20.4-49.96 35.2 18.58-7.6 37.7-13.7 56.32-21.2-19.02 17.5-43.61 27.4-62.94 44.6 40.2 0 80.97-6.1 118.23-21.8 13.9-4.8 27.3-12 42.17-13.1-0.75-8.9-3.07-17.6-5.02-26.3-29.32 3.2-53.95 21.5-82.51 28 23.83-17.3 54.36-27.9 81.71-36.5-16.1-71.3-8.27-144.7-0.74-216.5-6.33-88-6.41-179.72 29.03-262.21-4.17-20.38 33.79 2.22 36.1-10.74-18.96-50.21-39.54-99.94-57.96-150.35 5-1.23 10.69-1.04 14.46-5.06-53.23 0.81-108.42 14.91-160.22-3.61-3.64-0.83-7.33-4.03-11.01-4.24zm302.74 389.21c-7.05 7.9-15.41 15.3-20.3 24.7 7.38-5.2 27.36-13.6 20.3-24.7zm4.42 10.2c-14.68 11.8-25.84 31.7-40.04 45.6 11.51-5.4 19.08-16.7 30.3-22.1-11.06 16.2-26.62 30.2-35.06 48.6 8.91-6.4 15.36-15.9 24.92-21.4-4.97 11-14.2 19.5-19.96 30 8.12-5.1 15.1-12 23.8-16.2-15.15 18-35.1 32.6-46.29 53.8 12.82-10 24.13-22 37.83-31-14.5 18.5-33.35 34.1-45.34 54.7 16.26-13.9 33.24-27.3 51.62-38.4-17.25 18.8-39.48 34.5-52.93 57.1 16.47-12.4 33.24-24.3 49.94-36.4-14.13 18.2-34.68 30.7-47.4 50.2 14.32-13.2 30.34-24.7 47.49-33.7-15.61 19.4-40.22 32.8-49.92 57.5 15.93-12.9 31.37-26.9 49.46-36.8 3.61-2.1 0.45 3.7-0.84 4.1-15.2 15.3-32.27 29.1-43.72 47.6 15.13-10.1 28.41-23.1 44.55-31.7 2.32-1.4 1.75 0.6 1.07 2.2-15.45 14.3-32.56 28.3-44.09 45.9 16.08-11 31.53-23.9 48.5-33.9-17.47 22.4-43.16 37.6-57.45 62.6 16.08-15.1 33.61-28.6 52.47-40.1-17.91 23.5-42.79 42.1-55.9 69.1 17.32-17.9 35.06-36.5 57.12-49.1-17.71 24.8-41.74 45-57.4 71.3 16.39-17.6 32.48-36.3 52.48-49.9-13.6 20.8-34.33 37.6-43.43 61.3 50.78-7.3 101.34-16.2 152.25-22.4-6.16-13.9-13.62-27.8-25.22-37.8-31.43 6.6-58.8 23.7-87.17 37.8 24.53-22.6 55.34-37.7 86.14-50.2 7.57-15.5 12.8-32.1 20.05-47.7-24.71-67.2-52.26-133.7-77.83-200.6z" transform="scale(.8)" fill="#35476c"/>
  <path id="path4201" d="m447.75 0c-23.31 5.1375-47 8.2871-70.29 13.537 13.03 1.563 26.08-2.174 39.04-0.199-8.91 3.425-18.45 4.762-27.62 7.25 6.13 0.3 12.3 0.412 18.46 0.324-8.65 6.55-20.4 5.437-29.72 9.1 8.87 1.225 19.48-0.787 27.35 2.201-9.8 2.925-19.91 4.499-29.87 6.637 7.61 4.45 21.61-0.95 29.94 3.275-12.45 4.575-25.7 6.201-38.76 7.488 12.91 2 26.02 2.237 39.01 3.637-8.5 3.825-17.88 4.6-26.86 6.662 8.8 2.413 18.05 1.313 27.07 1.801-9.1 3.512-18.51 6.074-28.06 8.012 9.5 2.287 19.17 3.35 28.85 1.488-8.72 6.425-22.23 5.212-32.7 8.537 8.69 2.288 17.73 2.288 26.6 3.5-9.87 2.338-21.59 3.8-29.91 6.775 6.02 4.3 18.38 0.774 26.42 1.362-7.69 5.937-19.2 3.888-28.01 7.763 7.73 2.11 16.11 1.49 24.06 2.82-10.17 2.44-20.71 3.33-30.64 6.72 8.6 3.09 18.65-0.54 26.63 2.07-12.86 5.33-26.88 6.48-40.05 10.78 3.67 6.35 18.14-1.61 24.92 0.42-7.02 6.25-19.68 5.08-25.75 10.76 8.52 0.15 16.84-3.23 25.35-2.15-12.48 5.22-27.23 5.27-38.43 13.28 13.07-3.54 26.76-3.46 40.12-5.24-16.2 8.73-37.05 13.38-53.44 23.9 6.29-1.31 12.53-2.87 18.7-4.62 29.33-8.42 58.18-18.28 87.62-26.23 52.57-21.71 117.38-37.035 177.34-42.072-31.96-5.488-64.38-8.326-96.56-12.363-15.4-27.95-31.35-57.675-57.52-77.225h-3.29zm37.21 137.59c-3.46 0.15-6.82 0.42-10.22 0.79 1.39 2.7 2.74 5.42 4.12 8.13 1.23 2.3 3.69 0.94 5.2-0.25 0.36-2.89 0.65-5.78 0.9-8.67zm-13.37 123.25c-7.2-0.1-14.55 0.94-20.78 4.77 1.81 10.45-3.62 20.54-2.38 30.8 15.6 23.09 16.5 53.15 11.62 79.71-41.26-23.73-106.7-31.22-113.33-89.3-13.75 6.57-29.29 9.53-41.19 19.59 28.61 12.53 51.12 37.59 65.81 64.68 16.72 15.24 38.66 24.87 61.26 26.62-9.19 3.4-21.19-0.1-31.48-0.33 10.89 7.02 26.26 7.89 39.06 11.07-11.05 5.15-23.28 4.05-35.03 2.81 11.53 9.43 31.9 4.36 46.24 5.84-10.34 4.69-21.49 6.82-32.7 7.94 11.2 5.51 26.86-0.58 38.75 1.85-10.48 4.02-21.13 7.65-32.23 9.56 12.7 4.37 30.71-1.3 44.67-3.94-6.28 7.56-20.06 8.34-27.18 15.29 12.81-1.25 25.09-5.19 37.25-9.23-10.05 10.19-25.74 11.82-37.51 19.23 17.27-1.3 33.38-8.01 48.82-15.39-9.12 9.38-22.04 13.83-32.35 21.53 18.59-4.28 35.16-14.02 51.25-23.88-2.04 3.38-4.05 6.78-6.13 10.13 41.47-16.45 29.2-67.95 19.71-101.4-11.29-32.2-24.21-66.36-52.15-87.95zm53.34 14.37c35.02 58.72 53.87 127.2 55.08 195.39 7.29-3.21-0.76 8.09 5.3 2.12 14.68-12.93-13.31 25.27 4.57 9.62 13.03-9.63-5.53 9.35-2.68 11.12 4.77-1.27 7.91-5.45 11.77-8.26-2.26 6.14-6.46 11.31-8.87 17.37 5.89-1.83 10.16-6.49 15.02-10.04-3.72 6.28-7.71 12.42-11.17 18.86 7.09-2.2 12.58-7.39 18.85-11.11-3.62 7.66-9.65 13.84-13.71 21.26 6.39-1.58 11.47-5.99 17.03-9.26-3.21 5.13-7.08 9.87-9.72 15.36 6.05-2.23 10.81-6.72 16.29-9.98-3.3 7.25-8.6 13.38-13.84 19.3 7.26 1.75 13.88-5.25 20.14-8.07-3.7 7.25-9.13 13.25-14.9 18.86 6.44-1.34 12.3-4.41 18.52-6.45-2.5 5.81-7.38 10.07-11.15 15.05 6.69-1.25 12.5-4.89 18.53-7.8-3.06 5.11-7.35 9.31-11.35 13.69 6.82 0.89 12.82-2.4 18.83-4.95-2.31 5.88-9.76 9.32-11.75 14.28 7.99-0.77 15.53-3.93 23.04-6.61-4.37 5.64-9.17 10.94-13.67 16.49 6.74-1.88 13.38-4.08 19.95-6.48-3.85 4.79-9.06 8.65-12.14 13.94 7.43-1.04 13.94-4.98 20.75-7.82-4 5.07-9.05 9.52-11.95 15.37 9.44-0.67 16.61-7.35 24.77-11.28-4.23 8.81-14.01 12.71-20.11 19.92 10.34-2.08 19.32-7.82 28.42-12.85-4.58 8.95-13.59 14.07-19.48 21.82 10.65-0.91 18.69-8.55 27.48-13.76-3.22 7.78-10.05 13.28-15.17 19.76 8.44-2.28 15.8-7.04 22.6-12.42-3.77 9.98-12.73 15.5-19.87 22.65 9.11-1.05 16.7-6.36 24.71-10.3-2.42 5.88-7.3 10.18-11.1 15.11 9.3-2.47 17.45-7.9 25.01-13.7-4.13 8.05-10.52 14.47-16.25 21.33 9.59-2.76 17.09-9.34 24.99-15.03-3.16 8.23-10.09 14.13-14.95 21.29 10.61-2.19 21.06-19.05 30.31-16.38 10.56-12.37 20.27-25.93 26.03-41.26-7.68-24.06-25.1-46.86-45.3-62.67-22.2-14.18-44.65-29.98-57.51-53.72-17.69-30.27-40.87-56.66-61.14-85.09-19.95-26.79-26.4-61.82-50.44-85.84-12.21-10.93-25.34-20.99-39.77-28.83zm-234.04 65.78c-1.34 0.02-2.66 0.05-3.99 0.06 3.4 9.06 8.6 17.34 11.91 26.44-7.15-7.51-12.82-16.61-22.4-21.43 6.31 8.63 12.59 17.43 16.14 27.63-6.77-5.74-12.66-12.45-19.73-17.84 6.05 7.74 11.17 16.19 14.73 25.37-7.02-5.45-12.19-13.16-20.02-17.51 5.53 8.38 12.53 16.23 14.98 26.24-6.32-3.45-9.53-10.76-16.27-13.69 3.09 7.46 7.84 14.09 11 21.52-7.59-5.22-12.81-13.38-21.13-17.64 4.34 8.43 10.49 15.86 13.99 24.77-8.8-6.1-16.29-13.81-24.79-20.26 6.65 8.96 13.28 18.03 18.23 28.09-8.74-5.85-16.65-12.92-26-17.8 7.63 8.34 16.78 16.07 20.08 27.35-9.33-6.09-17.15-15.28-28.48-17.64 7.57 7.45 15.75 14.7 20.68 24.32-5.4-2.9-10.44-6.43-15.98-9.07 2.89 5.99 7.51 10.92 10.94 16.61-9.05-3.27-15.91-11.46-25.64-12.85 5.23 7.61 17.19 11.4 20.39 21.77-10.48-4.07-19.93-15.56-32.06-11.73 10.2 4 20.07 9.51 26.29 18.89-11.44-3.36-22.48-8.88-34.61-9.18 7.53 4.84 18.53 6.3 25.25 13.62-8.2 0.65-16.32-1.13-24.46-1.91 6.45 4.53 14.26 7.05 20.06 12.48-10.78 1.69-27.21-7.95-35.06 1.2 9.94-3.25 19.76 0.93 27.63 6.91-8.31 1.05-16.86-1.39-25.18 0.35 7.48 2.39 14.97 5.02 21.56 9.43-7.18 0.67-14.36 1.53-21.35 3.33 1.87 4.95 10.67 3.34 15.06 6.59-9.15 2.1-22.61 1.48-28.59 8.18 8.89-1.95 17.22 1.2 25.86 2.75-6.69 3.8-16.54 2.41-23.83 6.42 0.7 6.03 14.34-0.46 13.35 5.78-9.63 1.66-22.45 0.96-28.35 10.35 9.95-5.14 21.74-7.3 31.96-1.05-13.21 4.72-30.76 2.77-39.4 16.01 9.83-4.23 20.84-8.41 31.56-5.19-11.01 5.43-24.01 8.38-31.68 18.84 8.23-3.86 16.9-8.05 26.34-5.68-13.39 6.54-27.78 17.02-29.54 32.93 5.99 16.45 23.75 25.3 39.72 27.71-7.6 1.52-15.72-0.45-23.06 2.2 9.41 5.55 20.84 7.23 31.55 5.28-3.96 4.81-13.49 4.11-19.52 6.65 11.82 3.97 25.93 1.37 38.33-1.88-9.4 11.65-29.86 11.09-40.71 15.19 16.23 4.59 35.72 0.21 50.86-8.61-12.37 12.46-29.71 18.82-47.13 19.06 16.81 3.29 36.41-3.19 52.11-11.67-7.56 12.5-24.14 16.01-34.63 22.78 16.44-1.87 28.85-13.7 43.34-20.17-2.81 7.67-9.51 13.05-13.94 19.76 9.2-6.49 16.44-15.85 26.62-20.91-8.68 16.28-21.77 29.04-34.99 41.26 18.37-7.22 25.56-29.6 43.61-37.64-9 15.19-18.34 30.39-29.8 43.93 16.59-11.71 24.19-34.4 43.8-43.74-6.78 11.12-16.12 20.92-20.31 33.46 9.32-8.54 16.51-19.61 27.62-26.07-6.11 14.42-14.57 27.77-22.26 41.4 13.93-15.18 23.12-37.05 44.52-43.81-0.25-3.77-0.53-7.53-0.87-11.29-0.66 0.22-2 0.66-2.66 0.89-16.78-22.39-35.51-43.56-57.39-61.12 10.14-8.99 17.84-26.34 28.73-31.37-0.07-19.4 19.31-35.58 29.16-51.74 12.93-10.45 14.52-30.46 29.64-38.01-1.15 2.97-8.42 11.31-1.42 7.45 10.33-5.28-11.02 13.1 1.15 7.61 1.25 3.57-9.8 7.65-10.91 12.58 3.76-0.98 7.32-2.58 10.97-3.88-5.37 5.53-12.15 9.45-17.53 14.95 5.15-1.25 10.03-3.36 15.07-4.95-4.89 6.04-13.05 8.79-17.32 15.27 6.52-0.6 12.37-3.63 18.62-5.29-5.51 6.31-13 10.47-19.11 16.16 6.94-1.61 13.64-4 20.37-6.28-7.82 9.93-20.59 13.89-31.52 19.37 11.61 3.12 22.1-4.75 32.76-8-7.37 8.46-19.18 12.2-27.2 19.16 11.53-1.45 21.59-7.45 32.14-11.79-6.76 8.56-17.15 12.91-25.15 20.05 3.81-1.16 7.61-2.36 11.39-3.63 13.2-10.28 22.31-24.31 31.6-37.93-21.94-55.34-41.92-111.69-65.7-166.15zm68.27 1121.3c-15.82 0-31.65 0.4-47.45 0.8 31.59 1.4 63.27 0.5 94.88 0.3-15.78-0.8-31.6-1.1-47.43-1.1z" transform="scale(.8)" fill="#4f4b1d"/>
  <path id="path4203" d="m368.39 1.1328c-1.05-0.0683-2.3 0.2207-3.82 0.9922-117.51 57.763-233.91 117.96-351.41 175.88-4.6729 2.49-9.7225 4.7-13.16 8.9v1.15c4.0875-2.82 0.00039062 8.24 5.4004 9.38 18.613 5.06 37.188 10.48 55.975 14.93-9.063-10.76-27.25-11.91-39.187-20 21.274-22.41 52.137 5.61 74.775 3.18-12.4-7.99-28.151-12.88-41.951-19.32 10-6.92 23.351-17.96 36.039-9.81 10.189 4.04 23.509 3.56 29.089 14.79 39.05 52.86 90.85 99.74 155.04 118.5 3.3 6.51 5.36 13.61 8.51 20.23 2.67 6.91 6.4 13.57 7.2 21.06 23.78 54.46 43.76 110.81 65.7 166.15 17.89 44.03 34.82 88.47 52.09 132.77 4.65 9.44 6.47 20.46 12.94 28.85 13.09-0.22 23-9.59 14.6-21.16-22.98-55.51-43.72-111.99-66.12-167.75-4.68-24.55-5.46-50.84-20.19-72.25-24.72-28.89-32.9-66.89-47.35-101.21-2.08-6.44-6.81-12.65-6.52-19.48 18.55-36.47 24.45-78.82 20.43-119.36-0.93-3.14 3.11-3.63 4.99-5.04 16.39-10.52 37.24-15.17 53.44-23.9-13.36 1.78-27.05 1.7-40.12 5.24 11.2-8.01 25.95-8.06 38.43-13.28-8.51-1.08-16.83 2.3-25.35 2.15 6.07-5.68 18.73-4.51 25.75-10.76-6.78-2.03-21.25 5.93-24.92-0.42 13.17-4.3 27.19-5.45 40.05-10.78-7.98-2.61-18.03 1.02-26.63-2.07 9.93-3.39 20.47-4.28 30.64-6.72-7.95-1.33-16.33-0.71-24.06-2.82 8.81-3.875 20.32-1.826 28.01-7.763-8.04-0.588-20.4 2.938-26.42-1.362 8.32-2.975 20.04-4.437 29.91-6.775-8.87-1.212-17.91-1.212-26.6-3.5 10.47-3.325 23.98-2.112 32.7-8.537-9.68 1.862-19.35 0.799-28.85-1.488 9.55-1.938 18.96-4.5 28.06-8.012-9.02-0.488-18.27 0.612-27.07-1.801 8.98-2.062 18.36-2.837 26.86-6.662-12.99-1.4-26.1-1.637-39.01-3.637 13.06-1.287 26.31-2.913 38.76-7.488-8.33-4.225-22.33 1.175-29.94-3.275 9.96-2.138 20.07-3.712 29.87-6.637-7.87-2.988-18.48-0.976-27.35-2.201 9.32-3.663 21.07-2.55 29.72-9.1-6.16 0.088-12.33-0.024-18.46-0.324 9.17-2.488 18.71-3.825 27.62-7.25-12.96-1.975-26.01 1.762-39.04 0.199-3.74-1.266-3.43-12.035-9.07-12.404zm-6.54 18.217c3.6 2.45-6.35 15.288-8.11 21.8-5.44-3.15-13.38-4.575-17.28-8.613 6.78-5.55 17.1-8.95 25.39-13.187zm-43.78 22.375c10.99 0.112 22.54 3.113 33.15 5.837-5.33 18.313-9.06 37.063-11.43 55.998 0.77 17.04-18.92 24.62-29.63 32.4-3.09-24.38-9.47-48.222-15.28-72.085 11.58 1.35 25.88 10.525 36.26 8.125-5.2-10.675-26.04-11.412-33.26-20.475 6.7-3.3 13.36-6.763 20.19-9.8zm-38.71 18.75c12.09 1.087 11.54 20.775 15.4 30.812-13.22-4.475-25.67-11.825-38.41-17.662 5.57-6.3 15.39-9.125 23.01-13.15zm-38.7 20.062c18.83 2.475 37.02 9.789 55.37 14.826 3.83 15.327 7.18 30.857 8.92 46.587-15.14 13.39-31.8 25.3-46.26 39.3 16.7-4.61 33.3-9.74 50.21-13.54 3.41 37.13-1.81 77.69-17.49 110.8-22.45-58.09-46.07-115.73-68.62-173.76 11.55 2.03 24.32 9.16 34.4 8.3-12.64-7.91-27.58-12.13-39.85-20.575 7.05-4.85 15.43-8.288 23.32-11.938zm364.46 9.051c-59.96 5.037-124.77 20.362-177.34 42.072 26.03-5.85 52.13-11.42 78.23-16.94 33.74-6.82 67.38-14.15 100.5-23.495-0.35-0.413-1.05-1.225-1.39-1.637zm-408.51 13.422c3.94-0.25 3.83 6.63 6.03 9.37 22.07 58.43 45.95 116.33 67.4 174.94-58.88-16.65-106.14-61.02-142.32-108.68 1.59-2.99 10.82 5.92 12.47 0.06-15.24-4.5-27.81-15.69-32.45-30.91 21.22-12.29 45.88 14.18 67.14 11.97-11.22-9.12-31.57-14.42-43.47-23.29 9.04-4.7 18.05-9.98 27.39-13.91 17.35 4.85 34.29 13.95 51.79 17.09-9.1-8.65-27.24-14.53-38.25-24.59 8.09-4.01 16.07-8.27 24.27-12.05zm-97.198 49.48c3.008 0.19 3.558 7.26 5.548 8.81-4.71-1.41-16.397-5.45-6.997-8.44 0.541-0.29 1.02-0.4 1.449-0.37zm180.35 181.77c-0.46-0.02-0.96 0.04-1.5 0.2-25.62 20.09-47.36 44.74-67.02 70.55-29.66 49.06-64.54 99.42-66.19 158.98 2.3 16.47-5.85 34.72 3.75 49.8 20.58 46.88 59.24 85.21 106.32 105.16 1.76-8.83 0.31-18.84 6.43-26.21 7.69-13.63 16.15-26.98 22.26-41.4-11.11 6.46-18.3 17.53-27.62 26.07 4.19-12.54 13.53-22.34 20.31-33.46-19.61 9.34-27.21 32.03-43.8 43.74 11.46-13.54 20.8-28.74 29.8-43.93-18.05 8.04-25.24 30.42-43.61 37.64 13.22-12.22 26.31-24.98 34.99-41.26-10.18 5.06-17.42 14.42-26.62 20.91 4.43-6.71 11.13-12.09 13.94-19.76-14.49 6.47-26.9 18.3-43.34 20.17 10.49-6.77 27.07-10.28 34.63-22.78-15.7 8.48-35.3 14.96-52.11 11.67 17.42-0.24 34.76-6.6 47.13-19.06-15.14 8.82-34.63 13.2-50.86 8.61 10.85-4.1 31.31-3.54 40.71-15.19-12.4 3.25-26.51 5.85-38.33 1.88 6.03-2.54 15.56-1.84 19.52-6.65-10.71 1.95-22.14 0.27-31.55-5.28 7.34-2.65 15.46-0.68 23.06-2.2-15.97-2.41-33.73-11.26-39.72-27.71 1.76-15.91 16.15-26.39 29.54-32.93-9.44-2.37-18.11 1.82-26.34 5.68 7.67-10.46 20.67-13.41 31.68-18.84-10.72-3.22-21.73 0.96-31.56 5.19 8.64-13.24 26.19-11.29 39.4-16.01-10.22-6.25-22.01-4.09-31.96 1.05 5.9-9.39 18.72-8.69 28.35-10.35 0.99-6.24-12.65 0.25-13.35-5.78 7.29-4.01 17.14-2.62 23.83-6.42-8.64-1.55-16.97-4.7-25.86-2.75 5.98-6.7 19.44-6.08 28.59-8.18-4.39-3.25-13.19-1.64-15.06-6.59 6.99-1.8 14.17-2.66 21.35-3.33-6.59-4.41-14.08-7.04-21.56-9.43 8.32-1.74 16.87 0.7 25.18-0.35-7.87-5.98-17.69-10.16-27.63-6.91 7.85-9.15 24.28 0.49 35.06-1.2-5.8-5.43-13.61-7.95-20.06-12.48 8.14 0.78 16.26 2.56 24.46 1.91-6.72-7.32-17.72-8.78-25.25-13.62 12.13 0.3 23.17 5.82 34.61 9.18-6.22-9.38-16.09-14.89-26.29-18.89 12.13-3.83 21.58 7.66 32.06 11.73-3.2-10.37-15.16-14.16-20.39-21.77 9.73 1.39 16.59 9.58 25.64 12.85-3.43-5.69-8.05-10.62-10.94-16.61 5.54 2.64 10.58 6.17 15.98 9.07-4.93-9.62-13.11-16.87-20.68-24.32 11.33 2.36 19.15 11.55 28.48 17.64-3.3-11.28-12.45-19.01-20.08-27.35 9.35 4.88 17.26 11.95 26 17.8-4.95-10.06-11.58-19.13-18.23-28.09 8.5 6.45 15.99 14.16 24.79 20.26-3.5-8.91-9.65-16.34-13.99-24.77 8.32 4.26 13.54 12.42 21.13 17.64-3.16-7.43-7.91-14.06-11-21.52 6.74 2.93 9.95 10.24 16.27 13.69-2.45-10.01-9.45-17.86-14.98-26.24 7.83 4.35 13 12.06 20.02 17.51-3.56-9.18-8.68-17.63-14.73-25.37 7.07 5.39 12.96 12.1 19.73 17.84-3.55-10.2-9.83-19-16.14-27.63 9.58 4.82 15.25 13.92 22.4 21.43-3.31-9.1-8.51-17.38-11.91-26.44-2.3-2.09-3.89-6.59-7.14-6.79zm91.58 36.83c16.95 31.39 31.4 64.63 52.97 93.16 23.44 21.31 60.12 6 79.72-14.06 2.08-3.35 4.09-6.75 6.13-10.13-16.09 9.86-32.66 19.6-51.25 23.88 10.31-7.7 23.23-12.15 32.35-21.53-15.44 7.38-31.55 14.09-48.82 15.39 11.77-7.41 27.46-9.04 37.51-19.23-12.16 4.04-24.44 7.98-37.25 9.23 7.12-6.95 20.9-7.73 27.18-15.29-13.96 2.64-31.97 8.31-44.67 3.94 11.1-1.91 21.75-5.54 32.23-9.56-11.89-2.43-27.55 3.66-38.75-1.85 11.21-1.12 22.36-3.25 32.7-7.94-14.34-1.48-34.71 3.59-46.24-5.84 11.75 1.24 23.98 2.34 35.03-2.81-12.8-3.18-28.17-4.05-39.06-11.07 10.29 0.23 22.29 3.73 31.48 0.33-22.6-1.75-44.54-11.38-61.26-26.62zm-38.66 85.2c-15.12 7.55-16.71 27.56-29.64 38.01-9.85 16.16-29.23 32.34-29.16 51.74 2.82 7.66 6.28 15.22 11.43 21.62 14.71-4.17 27.42-13.76 39.68-22.59-3.78 1.27-7.58 2.47-11.39 3.63 8-7.14 18.39-11.49 25.15-20.05-10.55 4.34-20.61 10.34-32.14 11.79 8.02-6.96 19.83-10.7 27.2-19.16-10.66 3.25-21.15 11.12-32.76 8 10.93-5.48 23.7-9.44 31.52-19.37-6.73 2.28-13.43 4.67-20.37 6.28 6.11-5.69 13.6-9.85 19.11-16.16-6.25 1.66-12.1 4.69-18.62 5.29 4.27-6.48 12.43-9.23 17.32-15.27-5.04 1.59-9.92 3.7-15.07 4.95 5.38-5.5 12.16-9.42 17.53-14.95-3.65 1.3-7.21 2.9-10.97 3.88 1.11-4.93 12.16-9.01 10.91-12.58-12.17 5.49 9.18-12.89-1.15-7.61-7 3.86 0.27-4.48 1.42-7.45zm256.72 13.72c-0.54-0.08-1.79 0.69-4.09 2.71-6.06 5.97 1.99-5.33-5.3-2.12-12.91 27.01-3.87 62.37-19.91 89.5-13.5 31.4-55.41 30.6-72.44 58.83-5.31 11.01-8.61 25.61-1.13 36.5 7.48 0.15 10.41-7.59 11.4-13.83-6.03 4.94-16.38 3.58-9.27-5.24 13.4-31.73 55.98-26.87 71.46-56.02 8.96-14.95 10.67-32.7 14.69-49.3 13.41 18.38 36.07 26.62 48.43 45.74 26.21 31.6 55.01 61.63 88.14 86.02 17.58-3.14 29.47-18.52 41.68-30.18-9.25-2.67-19.7 14.19-30.31 16.38 4.86-7.16 11.79-13.06 14.95-21.29-7.9 5.69-15.4 12.27-24.99 15.03 5.73-6.86 12.12-13.28 16.25-21.33-7.56 5.8-15.71 11.23-25.01 13.7 3.8-4.93 8.68-9.23 11.1-15.11-8.01 3.94-15.6 9.25-24.71 10.3 7.14-7.15 16.1-12.67 19.87-22.65-6.8 5.38-14.16 10.14-22.6 12.42 5.12-6.48 11.95-11.98 15.17-19.76-8.79 5.21-16.83 12.85-27.48 13.76 5.89-7.75 14.9-12.87 19.48-21.82-9.1 5.03-18.08 10.77-28.42 12.85 6.1-7.21 15.88-11.11 20.11-19.92-8.16 3.93-15.33 10.61-24.77 11.28 2.9-5.85 7.95-10.3 11.95-15.37-6.81 2.84-13.32 6.78-20.75 7.82 3.08-5.29 8.29-9.15 12.14-13.94-6.57 2.4-13.21 4.6-19.95 6.48 4.5-5.55 9.3-10.85 13.67-16.49-7.51 2.68-15.05 5.84-23.04 6.61 1.99-4.96 9.44-8.4 11.75-14.28-6.01 2.55-12.01 5.84-18.83 4.95 4-4.38 8.29-8.58 11.35-13.69-6.03 2.91-11.84 6.55-18.53 7.8 3.77-4.98 8.65-9.24 11.15-15.05-6.22 2.04-12.08 5.11-18.52 6.45 5.77-5.61 11.2-11.61 14.9-18.86-6.26 2.82-12.88 9.82-20.14 8.07 5.24-5.92 10.54-12.05 13.84-19.3-5.48 3.26-10.24 7.75-16.29 9.98 2.64-5.49 6.51-10.23 9.72-15.36-5.56 3.27-10.64 7.68-17.03 9.26 4.06-7.42 10.09-13.6 13.71-21.26-6.27 3.72-11.76 8.91-18.85 11.11 3.46-6.44 7.45-12.58 11.17-18.86-4.86 3.55-9.13 8.21-15.02 10.04 2.41-6.06 6.61-11.23 8.87-17.37-3.86 2.81-7 6.99-11.77 8.26-2.85-1.77 15.71-20.75 2.68-11.12-15.09 13.2 2.48-11.93-0.48-12.33zm-255.31 87.74c-17.19 8.49-35.76 15.81-55.38 13.07 7.15 19.1 18.95 38.49 31.18 55.68 14.37 9.42 34.53-6.6 45.12-16.54-7.95 3.18-15.87 6.89-24.7 6.64 5.73-8.19 18.1-10.15 23.55-19.22-7.86 2.32-15.43 5.7-23.62 6.77 4.4-7.3 13.81-9.59 18.57-16.69-11.07 4.12-21.83 9.64-33.63 11.34 9.76-7.16 21.61-12.05 28.39-22.61-10.45 3.03-20.26 8.06-30.97 10.22 5.89-7.61 17.1-9.4 22.2-17.77-6.91 1.13-13.1 4.61-19.83 6.42 5.49-6.74 14.84-9.54 19.12-17.31zm224.19 32.93c8.86 50.56-12.6 103.94-48 139.58 21.41-8.76 35.21-30.21 47.36-49.1 8.23-27.2 10.74-57.06 5.11-84.94-1.13-2.11-2.12-4.56-4.47-5.54zm-211.84 40.43c-12.36 2.43-24.99 3.04-37.56 2.57-2.39 0.21-3.82 1.48-3.68 3.96 0.34 3.76 0.62 7.52 0.87 11.29 9.42 3.8 17.01 10.94 26.46 14.52 5.96-2.7 13.71-4.28 17.36-9.88-6.78-0.35-15.03 3.44-21.14 0.72 5.75-3.55 12.8-5.51 17.45-10.6-8.28 1.21-19.94 7.5-25.85 0.26 9.1-2.69 20.15-4.6 26.09-12.84zm-53.98 103.98c-0.58 0.34-1.76 1.04-2.35 1.37-45.12 121.38-31.92 255.88-4.02 379.84 10 10.3 27.18 13.4 41.13 11 15.64-4.6 32.59-1.3 47.84-7.9-18.92-2-41.24 2.1-60.27-6.3 18.46-1.3 41.92 0.5 57.7-9.5-19.24 2.7-38.88 1-57.59-4 14.53-1.1 29.42-3 42.82-9-18.58-0.1-41.61 2.2-57.48-6.9 20.65-3.5 43.81-0.5 62.57-11.3-23.51 4.5-48.09 3.5-71.62-0.1 17.39-4.3 38.07-5.9 56.38-11.6-18.47-1.5-38.28 2-56.51-4.7 17.84-4.5 36.95-1.4 54.16-9.1-15.11-0.9-30.58 0-45.22-4.9 16.2-1.8 32.87-2.8 47.79-10.1-20.18-0.3-40.59-1-60.35-6 18.24-0.9 38.98-0.5 56.7-9-18.08-1.4-36.43 0.3-54.39-3.2 16.4-4.4 37.65-3 54.35-11.8-17.46-1.6-38.9 0.4-54.15-7.05 12.2-1.66 31.03 3.8 44.08-5.46-18.42 0.76-36.09-4.25-54.08-7.2 16.81-4.28 42.51 5.07 57.59-8.63-19.68 3.13-39.44-0.02-58.95-2.62 19.12-2.55 40.13-0.81 57.82-10.29-19.89 0.41-41.91-0.98-60.09-5.7 16.4-0.3 39.13-1.66 57.03-7.85-17.59 0.61-35.35-0.24-52.45-5.29 17.64 0.19 35.66-0.67 51.7-8.69-18.21-1.03-37.96 0.76-55.65-6.63 19.4 0.72 43.04 1.42 59.29-9.05-18.79 4.15-38.05 1.83-56.52-2.8 18.32-1.07 38.57 0.42 55.54-9.02-17.76 0.38-35.06-3.56-52.57-5.77 15.2-3.43 35.01-1.7 51.2-7.82-16-0.78-31.75-3.7-47.57-5.98 14.89-3.45 32.82-0.66 47.69-7.7-15.97-0.78-31.66-4.36-47.67-4.57 12.91-4.97 32.58-1.87 46.51-10.72-15.71-1.06-31.61 0.19-47.14-3.2 14.39-5.21 33.73 0.22 48.32-9.11-12.99-1.8-30.04 0.19-41.33-4.47 11.12-5.22 28.26-3.28 41.16-7.77-14.01-3.79-29.4-2.8-43.91-5.02 14.2-2.8 31.06-3.28 43-11.04-15.56 1.26-31.59 2.86-46.86-1.36 15.27-4.38 34.02-4.64 49.5-11.85-15.59-1.1-31.3 0.51-46.79-1.85 14.06-3.5 31.94-3.24 46.74-9.15-11.89-1.63-23.93-1.63-35.79-3.44 11.31-2.65 23.64-2.81 34.22-7.69-12.22-2.13-25.63-1.06-37.91-4.96 12.73-2.2 25.74-2.35 38.4-5.06-2.28-6.03-18.48-0.85-23-5.62 5.39-4.31 15.59-3.91 22.32-6.88-8.33-1.6-16.91-1.45-25.18-3.37 7.06-5.46 18.86-3.21 27.69-6.57-9.03-0.81-18.39-1.01-26.67-5.15 7.03-1.84 15.21 1.05 21.84-1.68-13.32-3.2-26.8-6.29-39-12.73zm177.58 4.56c-1.28 0.96-2.53 1.92-3.79 2.89-3.77 4.02-9.46 3.83-14.46 5.06 18.42 50.41 39 100.14 57.96 150.35-2.31 12.96-40.27-9.64-36.1 10.74 21.74 24.91 45.97 47.84 68.32 71.9 15.18 38.11 29.9 76.41 44.85 114.61-9.37 27.3-22.02 53.7-34.22 79.9-25.74 56.7-36.44 118.6-48.14 179.3-5.4 28.6-10.72 58.1-4.3 87-14.97-9.5-32.27-13.9-48.98-19.2-14.87 1.1-28.27 8.3-42.17 13.1-37.26 15.7-78.03 21.8-118.23 21.8 19.33-17.2 43.92-27.1 62.94-44.6-18.62 7.5-37.74 13.6-56.32 21.2 14.39-14.8 35.53-20.7 49.96-35.2-15.51 4-30 11.1-45.08 16.4 12.85-11.9 29.43-18.9 42.57-30.2-16.61 4.3-32.33 11.4-48.65 16.5 13.95-12.6 32.14-19.3 47.48-30-14.37 3.4-28.48 7.9-42.87 11.2 11.84-10 28.09-16.4 40.01-23.7-18.53 2.6-36.34 8.8-53.52 16.2 13.08-14.6 32.76-19.5 47.88-31.1-17.15 4.2-33.85 9.9-50.32 16.1 12.52-15.1 32.76-20.9 47.55-32.5-15.61 2.3-30.12 8.6-44.91 13.8 10.56-13.7 29.25-17.3 41.22-28.8-11.5 1.4-22.65 4.7-33.83 7.5 6.86-10.9 21.35-12.2 30.05-20.3-12.28 0.6-23.51 5.4-35.04 9.1 8.8-9.1 21.64-13.2 30.26-22.4-11.64 2.2-22.75 6.2-33.92 9.9 8.24-11.3 23.21-14 32.62-23.8-11.61 4.3-22.92 9.6-34.96 12.7 8.99-11.2 23.32-15.9 34.11-24.8-9.47 2.1-18.67 5.2-28.15 7.3 7.7-10.2 20.23-14.4 29.96-22.1-10.37-1.6-19.94 3.7-29.77 6 8.38-8.9 21.3-12.6 29.77-21.6-10.37 1.4-19.73 6.4-29.86 8.8 8.25-10.1 22.24-12.4 31.45-21.1-12.35 2.4-24.32 6.3-36.38 9.8 10.07-11 24.53-16 36.65-24.3-13.22-0.5-25.39 6.9-37.72 10.8 11.05-13.3 30.97-16.5 43.28-28-15.59 2.4-30.49 7.6-44.77 14.2 12.48-13.3 32.06-17.2 46.39-27.9-13.72 1.7-27.11 5.2-40.35 9 12.15-10.3 28.13-14.4 41.64-22.5-10.02 1.2-19.79 4.1-29.83 5.1 9.25-7.3 23.5-10 34.82-15.6-11.54-2.4-25.68 4.4-36.3 2.2 13.9-8.1 29.81-11.2 44.95-16.1-22.04-1.2-44.03 5.5-64.18 14-14.91 65-12.27 133.8-16.67 200.5 1.11 37.6 2.62 75.7 9.82 112.6 11.85 2.1 26.09 1.5 38.95 1.7 31.6-0.8 63.32-1.4 94.88 0.3 89.27 1.6 178.86-1.6 267.96 1.6h5.89c0.96-4.4 5.36-1.6 8.15 0h1.13c6.43-1.4 13.04-1 19.5 0h8.38c1.46-4.2 5.74-1.4 8.71 0h13.23c3.28-2.8 7.2-1 11 0h6.07c-20.66-53.9-42.31-107.4-63.14-161.2-24.75-62.4-49.03-125-73.66-187.4-2.15-5.9-6.92-12.8-2.09-18.7-3.72 4.1-7.13-0.4-6.11-4.6 6.94-8.5 16.55-14.9 22-24.6-9.15 5.1-17.1 12.9-27.18 15.9 8.17-14.8 26.12-24.7 39.78-35.6-14.71 3.4-28.53 10.3-40.78 19-1.19 1-2.41 2-4.02 1.9-6.57-17.8-14.29-35.3-20.35-53.3 13.3 8 21.03 24.6 36.89 28.8 19.96-0.4 42.84-2.1 59.56-12.9-15.86 1.6-32.22 3-47.76-1.4 17.11-1.8 34.37-4.6 50.32-11.3-13.72-1.9-32.14 5.3-44.89 0.5 7.26-4.7 19.77-6 27.91-12-20.64 0.3-44.19 6.5-62.93 0.7 13.38-3.6 31.44-3.8 44.96-11.91-18.37-0.99-36.77 1.82-55.18 0.83 10.82-6.15 27.85-4.9 40.42-10.58-13.55-2.47-27.84-0.13-41.67-0.71 12-5.68 29.72-6.83 39.75-15.21-15.98 1.99-32.08 3.38-48.2 2.64 12.04-5.28 28.9-7.06 41.22-15.17-17.85 1.81-36.15 5.64-54.01 2.49 10.19-3.68 20.93-6.1 30.55-11.19-13.56 0.16-27.2 3.78-40.72 1.27 10.2-5.35 23.77-5.86 32.67-12.69-13.38 0.74-27.08 4.64-40.35 1.67 7.3-4.64 16.64-5.42 23.61-10.79-5.76-3.69-25.57 10.14-28.18-3.24 7.1-3.37 15.34-4.72 21.32-10.11-8.4-1.21-23.85 10.2-26.25-2.38 5.8-3.06 13.3-3.45 17.72-8.65-6.57 0.75-13.13 3.13-19.78 2.28-6.28-5.14 7.91-9.32-3.98-10.36-18.6-45.74-36.2-91.97-54.41-137.89-3.01-6.54-3.69-14.7-9.61-19.45zm127.72 384.25c7.06 11.1-12.92 19.5-20.3 24.7 4.89-9.4 13.25-16.8 20.3-24.7zm4.42 10.2c25.57 66.9 53.12 133.4 77.83 200.6 14.91 35.8 29.48 72.3 42.52 108.9-12.19-3.3-23.83-8.6-36.32-11-50.91 6.2-101.47 15.1-152.25 22.4 9.1-23.7 29.83-40.5 43.43-61.3-20 13.6-36.09 32.3-52.48 49.9 15.66-26.3 39.69-46.5 57.4-71.3-22.06 12.6-39.8 31.2-57.12 49.1 13.11-27 37.99-45.6 55.9-69.1-18.86 11.5-36.39 25-52.47 40.1 14.29-25 39.98-40.2 57.45-62.6-16.97 10-32.42 22.9-48.5 33.9 11.53-17.6 28.64-31.6 44.09-45.9 0.68-1.6 1.25-3.6-1.07-2.2-16.14 8.6-29.42 21.6-44.55 31.7 11.45-18.5 28.52-32.3 43.72-47.6 1.29-0.4 4.45-6.2 0.84-4.1-18.09 9.9-33.53 23.9-49.46 36.8 9.7-24.7 34.31-38.1 49.92-57.5-17.15 9-33.17 20.5-47.49 33.7 12.72-19.5 33.27-32 47.4-50.2-16.7 12.1-33.47 24-49.94 36.4 13.45-22.6 35.68-38.3 52.93-57.1-18.38 11.1-35.36 24.5-51.62 38.4 11.99-20.6 30.84-36.2 45.34-54.7-13.7 9-25.01 21-37.83 31 11.19-21.2 31.14-35.8 46.29-53.8-8.7 4.2-15.68 11.1-23.8 16.2 5.76-10.5 14.99-19 19.96-30-9.56 5.5-16.01 15-24.92 21.4 8.44-18.4 24-32.4 35.06-48.6-11.22 5.4-18.79 16.7-30.3 22.1 14.2-13.9 25.36-33.8 40.04-45.6zm57.78 248.3c-30.8 12.5-61.61 27.6-86.14 50.2 28.37-14.1 55.74-31.2 87.17-37.8-2.46-3.4 2.97-11.8-1.03-12.4zm-214.6 5c-27.35 8.6-57.88 19.2-81.71 36.5 28.56-6.5 53.19-24.8 82.51-28-0.2-2.8-0.32-5.7-0.8-8.5z" transform="scale(.8)" fill="#010201"/>
  <path id="path4205" d="m506.01 114.72c-26.1 5.52-52.2 11.09-78.23 16.94-29.44 7.95-58.29 17.81-87.62 26.23 1 43.03 5.28 85.92 6.56 128.93 6.63 58.08 72.07 65.57 113.33 89.3 4.88-26.56 3.98-56.62-11.62-79.71-1.24-10.26 4.19-20.35 2.38-30.8-9.01-29.03 21.8-14.2 35.88-25.43 15.46-8.57 4.41-32.57 19.87-40.9 3.34-3.89 0.66-9.64 1.66-14.32 5.54-0.52 15.75 0.15 14.1-8.3-4.53-20.79-10.25-41.5-16.31-61.94zm-18.54 21.52c3.9 0.25 4.27 13.13-3.41 10.02-1.51 1.19-3.97 2.55-5.2 0.25-17.21 5.76-22.66-5.06-4.12-8.13 3.4-0.37 6.76-0.64 10.22-0.79 0.94-1 1.79-1.39 2.51-1.35zm291.62 455.12c-5.76 15.33-15.47 28.89-26.03 41.26-12.21 11.66-24.1 27.04-41.68 30.18 29.03 20.56 61.04 36.87 94.66 48.52 11.58 8.18 22.5 17.56 31.95 28.21 13.31 10.36 30.72 12.58 44.71 21.83 8.37 3.57 14.64-3.15 18.87-9.22 12.54 2.73 20.44-4.84 22.05-16.1 14.4 0.01 22.27-13.87 16.93-26.97 5.23-2.05 11.07-3.98 13.2-9.81v-8.72c-3.43-22.27-27.97-28.1-39.79-44.55-26-15.88-57.37 18.76-84.86 1.51-19.7-15.69-39.49-32.59-50.01-56.14zm-370.41 48.55c-8.85 22.94-39.33 17.69-50.28 38.71-8.75-4.84-16.9-10.72-25.87-15.17-9.45-3.58-17.04-10.72-26.46-14.52-21.4 6.76-30.59 28.63-44.52 43.81-6.12 7.37-4.67 17.38-6.43 26.21 11.67 5.36 25.68 8.74 34.99 17.51 0.59-0.33 1.77-1.03 2.35-1.37 4.54-1.79 9.09 2.82 13.57 3.84 51.8 18.52 106.99 4.42 160.22 3.61 1.26-0.97 2.51-1.93 3.79-2.89 10.28-6.62 10.45-20.45 15.05-30.58-9.48-10.86 4.34-30.49-14.54-34.82 8.66-22.24-17.23-32.41-34.33-26.65 8.4 11.57-1.51 20.94-14.6 21.16-6.47-8.39-8.29-19.41-12.94-28.85z" transform="scale(.8)" fill="#b57250"/>
  <path id="path4209" d="m485.56 260.22c-4.86-0.05-9.61 0.22-13.97 0.62 27.94 21.59 40.86 55.75 52.15 87.95 9.49 33.45 21.76 84.95-19.71 101.4-19.6 20.06-56.28 35.37-79.72 14.06-21.57-28.53-36.02-61.77-52.97-93.16-14.69-27.09-37.2-52.15-65.81-64.68-0.74-0.01-2.23-0.01-2.97-0.02 14.45 34.32 22.63 72.32 47.35 101.21 14.73 21.41 15.51 47.7 20.19 72.25 22.4 55.76 43.14 112.24 66.12 167.75 17.1-5.76 42.99 4.41 34.33 26.65 18.88 4.33 5.06 23.96 14.54 34.82-4.6 10.13-4.77 23.96-15.05 30.58 5.92 4.75 6.6 12.91 9.61 19.45 18.21 45.92 35.81 92.15 54.41 137.89 11.89 1.04-2.3 5.22 3.98 10.36 6.65 0.85 13.21-1.53 19.78-2.28-4.42 5.2-11.92 5.59-17.72 8.65 2.4 12.58 17.85 1.17 26.25 2.38-5.98 5.39-14.22 6.74-21.32 10.11 2.61 13.38 22.42-0.45 28.18 3.24-6.97 5.37-16.31 6.15-23.61 10.79 13.27 2.97 26.97-0.93 40.35-1.67-8.9 6.83-22.47 7.34-32.67 12.69 13.52 2.51 27.16-1.11 40.72-1.27-9.62 5.09-20.36 7.51-30.55 11.19 17.86 3.15 36.16-0.68 54.01-2.49-12.32 8.11-29.18 9.89-41.22 15.17 16.12 0.74 32.22-0.65 48.2-2.64-10.03 8.38-27.75 9.53-39.75 15.21 13.83 0.58 28.12-1.76 41.67 0.71-12.57 5.68-29.6 4.43-40.42 10.58 18.41 0.99 36.81-1.82 55.18-0.83-13.52 8.11-31.58 8.31-44.96 11.91 18.74 5.8 42.29-0.4 62.93-0.7-8.14 6-20.65 7.3-27.91 12 12.75 4.8 31.17-2.4 44.89-0.5-15.95 6.7-33.21 9.5-50.32 11.3 15.54 4.4 31.9 3 47.76 1.4-16.72 10.8-39.6 12.5-59.56 12.9-3.79 7.8-9.72 14.4-12.52 22.6 12.25-8.7 26.07-15.6 40.78-19-13.66 10.9-31.61 20.8-39.78 35.6 10.08-3 18.03-10.8 27.18-15.9-5.45 9.7-15.06 16.1-22 24.6-1.02 4.2 2.39 8.7 6.11 4.6-4.83 5.9-0.06 12.8 2.09 18.7 24.63 62.4 48.91 125 73.66 187.4 29.48-84.6 67-168 77.32-258 3.61-15.8 1.02-32.1-4.68-46.96-15.22-48.86-38.51-95-68.47-136.48-44.74-61.76-85.52-127.31-140-181.2-12.15 18.89-25.95 40.34-47.36 49.1 35.4-35.64 56.86-89.02 48-139.58 2.35 0.98 3.34 3.43 4.47 5.54-1.27-5.22-2.14-10.54-2.63-15.88-15.48 29.15-58.06 24.29-71.46 56.02-7.11 8.82 3.24 10.18 9.27 5.24-0.99 6.24-3.92 13.98-11.4 13.83-7.48-10.89-4.18-25.49 1.13-36.5 17.03-28.23 58.94-27.43 72.44-58.83 16.04-27.13 7-62.49 19.91-89.5-1.21-68.19-20.06-136.67-55.08-195.39-9.17-11.67-24.78-14.81-39.37-14.99zm-201.87 59.71c-3.84 3.91-7.28 8.8-5.43 14.53 4.31-1.33 6.02 4.2 8.64 6.59 1.33-0.01 2.65-0.04 3.99-0.06-0.8-7.49-4.53-14.15-7.2-21.06zm72.9 187.21c-9.29 13.62-18.4 27.65-31.6 37.93-12.26 8.83-24.97 18.42-39.68 22.59-2.29 0.79-5.42 0.65-6.6 3.16 19.62 2.74 38.19-4.58 55.38-13.07-4.28 7.77-13.63 10.57-19.12 17.31 6.73-1.81 12.92-5.29 19.83-6.42-5.1 8.37-16.31 10.16-22.2 17.77 10.71-2.16 20.52-7.19 30.97-10.22-6.78 10.56-18.63 15.45-28.39 22.61 11.8-1.7 22.56-7.22 33.63-11.34-4.76 7.1-14.17 9.39-18.57 16.69 8.19-1.07 15.76-4.45 23.62-6.77-5.45 9.07-17.82 11.03-23.55 19.22 8.83 0.25 16.75-3.46 24.7-6.64-10.59 9.94-30.75 25.96-45.12 16.54-0.28 2.4-0.64 4.79-1.01 7.18 12.57 0.47 25.2-0.14 37.56-2.57-5.94 8.24-16.99 10.15-26.09 12.84 5.91 7.24 17.57 0.95 25.85-0.26-4.65 5.09-11.7 7.05-17.45 10.6 6.11 2.72 14.36-1.07 21.14-0.72-3.65 5.6-11.4 7.18-17.36 9.88 8.97 4.45 17.12 10.33 25.87 15.17 10.95-21.02 41.43-15.77 50.28-38.71-17.27-44.3-34.2-88.74-52.09-132.77zm-61.57 227.55c-0.86-0.05-1.71 0.06-2.56 0.4 12.2 6.44 25.68 9.53 39 12.73-6.63 2.73-14.81-0.16-21.84 1.68 8.28 4.14 17.64 4.34 26.67 5.15-8.83 3.36-20.63 1.11-27.69 6.57 8.27 1.92 16.85 1.77 25.18 3.37-6.73 2.97-16.93 2.57-22.32 6.88 4.52 4.77 20.72-0.41 23 5.62-12.66 2.71-25.67 2.86-38.4 5.06 12.28 3.9 25.69 2.83 37.91 4.96-10.58 4.88-22.91 5.04-34.22 7.69 11.86 1.81 23.9 1.81 35.79 3.44-14.8 5.91-32.68 5.65-46.74 9.15 15.49 2.36 31.2 0.75 46.79 1.85-15.48 7.21-34.23 7.47-49.5 11.85 15.27 4.22 31.3 2.62 46.86 1.36-11.94 7.76-28.8 8.24-43 11.04 14.51 2.22 29.9 1.23 43.91 5.02-12.9 4.49-30.04 2.55-41.16 7.77 11.29 4.66 28.34 2.67 41.33 4.47-14.59 9.33-33.93 3.9-48.32 9.11 15.53 3.39 31.43 2.14 47.14 3.2-13.93 8.85-33.6 5.75-46.51 10.72 16.01 0.21 31.7 3.79 47.67 4.57-14.87 7.04-32.8 4.25-47.69 7.7 15.82 2.28 31.57 5.2 47.57 5.98-16.19 6.12-36 4.39-51.2 7.82 17.51 2.21 34.81 6.15 52.57 5.77-16.97 9.44-37.22 7.95-55.54 9.02 18.47 4.63 37.73 6.95 56.52 2.8-16.25 10.47-39.89 9.77-59.29 9.05 17.69 7.39 37.44 5.6 55.65 6.63-16.04 8.02-34.06 8.88-51.7 8.69 17.1 5.05 34.86 5.9 52.45 5.29-17.9 6.19-40.63 7.55-57.03 7.85 18.18 4.72 40.2 6.11 60.09 5.7-17.69 9.48-38.7 7.74-57.82 10.29 19.51 2.6 39.27 5.75 58.95 2.62-15.08 13.7-40.78 4.35-57.59 8.63 17.99 2.95 35.66 7.96 54.08 7.2-13.05 9.26-31.88 3.8-44.08 5.46 15.25 7.45 36.69 5.45 54.15 7.05-16.7 8.8-37.95 7.4-54.35 11.8 17.96 3.5 36.31 1.8 54.39 3.2-17.72 8.5-38.46 8.1-56.7 9 19.76 5 40.17 5.7 60.35 6-14.92 7.3-31.59 8.3-47.79 10.1 14.64 4.9 30.11 4 45.22 4.9-17.21 7.7-36.32 4.6-54.16 9.1 18.23 6.7 38.04 3.2 56.51 4.7-18.31 5.7-38.99 7.3-56.38 11.6 23.53 3.6 48.11 4.6 71.62 0.1-18.76 10.8-41.92 7.8-62.57 11.3 15.87 9.1 38.9 6.8 57.48 6.9-13.4 6-28.29 7.9-42.82 9 18.71 5 38.35 6.7 57.59 4-15.78 10-39.24 8.2-57.7 9.5 19.03 8.4 41.35 4.3 60.27 6.3-15.25 6.6-32.2 3.3-47.84 7.9-13.95 2.4-31.13-0.7-41.13-11-0.59 10.9-3.85 21.4-6.48 32 20.15-8.5 42.14-15.2 64.18-14-15.14 4.9-31.05 8-44.95 16.1 10.62 2.2 24.76-4.6 36.3-2.2-11.32 5.6-25.57 8.3-34.82 15.6 10.04-1 19.81-3.9 29.83-5.1-13.51 8.1-29.49 12.2-41.64 22.5 13.24-3.8 26.63-7.3 40.35-9-14.33 10.7-33.91 14.6-46.39 27.9 14.28-6.6 29.18-11.8 44.77-14.2-12.31 11.5-32.23 14.7-43.28 28 12.33-3.9 24.5-11.3 37.72-10.8-12.12 8.3-26.58 13.3-36.65 24.3 12.06-3.5 24.03-7.4 36.38-9.8-9.21 8.7-23.2 11-31.45 21.1 10.13-2.4 19.49-7.4 29.86-8.8-8.47 9-21.39 12.7-29.77 21.6 9.83-2.3 19.4-7.6 29.77-6-9.73 7.7-22.26 11.9-29.96 22.1 9.48-2.1 18.68-5.2 28.15-7.3-10.79 8.9-25.12 13.6-34.11 24.8 12.04-3.1 23.35-8.4 34.96-12.7-9.41 9.8-24.38 12.5-32.62 23.8 11.17-3.7 22.28-7.7 33.92-9.9-8.62 9.2-21.46 13.3-30.26 22.4 11.53-3.7 22.76-8.5 35.04-9.1-8.7 8.1-23.19 9.4-30.05 20.3 11.18-2.8 22.33-6.1 33.83-7.5-11.97 11.5-30.66 15.1-41.22 28.8 14.79-5.2 29.3-11.5 44.91-13.8-14.79 11.6-35.03 17.4-47.55 32.5 16.47-6.2 33.17-11.9 50.32-16.1-15.12 11.6-34.8 16.5-47.88 31.1 17.18-7.4 34.99-13.6 53.52-16.2-11.92 7.3-28.17 13.7-40.01 23.7 14.39-3.3 28.5-7.8 42.87-11.2-15.34 10.7-33.53 17.4-47.48 30 16.32-5.1 32.04-12.2 48.65-16.5-13.14 11.3-29.72 18.3-42.57 30.2 15.08-5.3 29.57-12.4 45.08-16.4-14.43 14.5-35.57 20.4-49.96 35.2 18.58-7.6 37.7-13.7 56.32-21.2-19.02 17.5-43.61 27.4-62.94 44.6 40.2 0 80.97-6.1 118.23-21.8 13.9-4.8 27.3-12 42.17-13.1-0.75-8.9-3.07-17.6-5.02-26.3-29.32 3.2-53.95 21.5-82.51 28 23.83-17.3 54.36-27.9 81.71-36.5-16.1-71.3-8.27-144.7-0.74-216.5-6.33-88-6.41-179.72 29.03-262.21-4.17-20.38 33.79 2.22 36.1-10.74-18.96-50.21-39.54-99.94-57.96-150.35 5-1.23 10.69-1.04 14.46-5.06-53.23 0.81-108.42 14.91-160.22-3.61-3.64-0.83-7.33-4.03-11.01-4.24zm302.74 389.21c-7.05 7.9-15.41 15.3-20.3 24.7 7.38-5.2 27.36-13.6 20.3-24.7zm4.42 10.2c-14.68 11.8-25.84 31.7-40.04 45.6 11.51-5.4 19.08-16.7 30.3-22.1-11.06 16.2-26.62 30.2-35.06 48.6 8.91-6.4 15.36-15.9 24.92-21.4-4.97 11-14.2 19.5-19.96 30 8.12-5.1 15.1-12 23.8-16.2-15.15 18-35.1 32.6-46.29 53.8 12.82-10 24.13-22 37.83-31-14.5 18.5-33.35 34.1-45.34 54.7 16.26-13.9 33.24-27.3 51.62-38.4-17.25 18.8-39.48 34.5-52.93 57.1 16.47-12.4 33.24-24.3 49.94-36.4-14.13 18.2-34.68 30.7-47.4 50.2 14.32-13.2 30.34-24.7 47.49-33.7-15.61 19.4-40.22 32.8-49.92 57.5 15.93-12.9 31.37-26.9 49.46-36.8 3.61-2.1 0.45 3.7-0.84 4.1-15.2 15.3-32.27 29.1-43.72 47.6 15.13-10.1 28.41-23.1 44.55-31.7 2.32-1.4 1.75 0.6 1.07 2.2-15.45 14.3-32.56 28.3-44.09 45.9 16.08-11 31.53-23.9 48.5-33.9-17.47 22.4-43.16 37.6-57.45 62.6 16.08-15.1 33.61-28.6 52.47-40.1-17.91 23.5-42.79 42.1-55.9 69.1 17.32-17.9 35.06-36.5 57.12-49.1-17.71 24.8-41.74 45-57.4 71.3 16.39-17.6 32.48-36.3 52.48-49.9-13.6 20.8-34.33 37.6-43.43 61.3 50.78-7.3 101.34-16.2 152.25-22.4-6.16-13.9-13.62-27.8-25.22-37.8-31.43 6.6-58.8 23.7-87.17 37.8 24.53-22.6 55.34-37.7 86.14-50.2 7.57-15.5 12.8-32.1 20.05-47.7-24.71-67.2-52.26-133.7-77.83-200.6z" transform="scale(.8)" fill="#35476c"/>
 </g>
</svg>
